<svg width="360" height="800" viewBox="0 0 360 800" fill="none" xmlns="http://www.w3.org/2000/svg">
<g clip-path="url(#clip0_676_12572)">
<path d="M70 7.2915H289V7.2915C286.894 7.89419 285.418 9.78675 285.345 11.976L285.317 12.8533V12.8533C285.317 26.3502 274.375 37.2915 260.878 37.2915H98.1217C84.6249 37.2915 73.6835 26.3502 73.6835 12.8533V12.8533L73.6545 11.976C73.5823 9.78675 72.1059 7.89419 70 7.2915V7.2915Z" fill="white"/>
<path opacity="0.35" d="M323.667 27.1245H340.333C341.53 27.1245 342.5 28.0946 342.5 29.2912V35.2912C342.5 36.4878 341.53 37.4578 340.333 37.4578H323.667C322.47 37.4578 321.5 36.4878 321.5 35.2912V29.2912C321.5 28.0946 322.47 27.1245 323.667 27.1245Z" stroke="white"/>
<path opacity="0.4" d="M344 30.291V34.291C344.805 33.9522 345.328 33.1641 345.328 32.291C345.328 31.4179 344.805 30.6298 344 30.291" fill="white"/>
<path d="M323 29.9578C323 29.2215 323.597 28.6245 324.333 28.6245H339.667C340.403 28.6245 341 29.2215 341 29.9578V34.6245C341 35.3609 340.403 35.9578 339.667 35.9578H324.333C323.597 35.9578 323 35.3609 323 34.6245V29.9578Z" fill="white"/>
<path fill-rule="evenodd" clip-rule="evenodd" d="M308.33 28.8994C310.546 28.8995 312.678 29.7509 314.283 31.2777C314.404 31.3956 314.598 31.3941 314.717 31.2744L315.873 30.1077C315.933 30.047 315.967 29.9648 315.966 29.8792C315.966 29.7936 315.931 29.7117 315.87 29.6517C311.655 25.6122 305.005 25.6122 300.79 29.6517C300.729 29.7117 300.694 29.7935 300.694 29.8791C300.693 29.9647 300.727 30.047 300.787 30.1077L301.943 31.2744C302.062 31.3943 302.256 31.3958 302.377 31.2777C303.983 29.7508 306.114 28.8994 308.33 28.8994ZM308.33 32.6951C309.548 32.695 310.722 33.1475 311.624 33.9647C311.747 34.0807 311.939 34.0782 312.058 33.9591L313.212 32.7924C313.273 32.7312 313.307 32.6482 313.306 32.5619C313.305 32.4757 313.27 32.3933 313.208 32.3334C310.46 29.777 306.204 29.777 303.455 32.3334C303.393 32.3933 303.358 32.4757 303.357 32.562C303.356 32.6483 303.39 32.7313 303.451 32.7924L304.605 33.9591C304.724 34.0782 304.917 34.0807 305.039 33.9647C305.941 33.1481 307.114 32.6956 308.33 32.6951ZM310.643 35.2489C310.645 35.3354 310.611 35.4188 310.549 35.4794L308.552 37.4951C308.494 37.5543 308.414 37.5876 308.33 37.5876C308.247 37.5876 308.167 37.5543 308.109 37.4951L306.111 35.4794C306.049 35.4187 306.015 35.3353 306.017 35.2488C306.019 35.1623 306.057 35.0804 306.121 35.0224C307.396 33.9435 309.265 33.9435 310.54 35.0224C310.604 35.0804 310.642 35.1624 310.643 35.2489Z" fill="white"/>
<path fill-rule="evenodd" clip-rule="evenodd" d="M294.667 26.958H293.667C293.114 26.958 292.667 27.4057 292.667 27.958V36.6247C292.667 37.177 293.114 37.6247 293.667 37.6247H294.667C295.219 37.6247 295.667 37.177 295.667 36.6247V27.958C295.667 27.4057 295.219 26.958 294.667 26.958ZM289 29.2913H290C290.552 29.2913 291 29.7391 291 30.2913V36.6247C291 37.177 290.552 37.6247 290 37.6247H289C288.448 37.6247 288 37.177 288 36.6247V30.2913C288 29.7391 288.448 29.2913 289 29.2913ZM285.333 31.6247H284.333C283.781 31.6247 283.333 32.0724 283.333 32.6247V36.6247C283.333 37.177 283.781 37.6247 284.333 37.6247H285.333C285.886 37.6247 286.333 37.177 286.333 36.6247V32.6247C286.333 32.0724 285.886 31.6247 285.333 31.6247ZM280.667 33.6247H279.667C279.114 33.6247 278.667 34.0724 278.667 34.6247V36.6247C278.667 37.177 279.114 37.6247 279.667 37.6247H280.667C281.219 37.6247 281.667 37.177 281.667 36.6247V34.6247C281.667 34.0724 281.219 33.6247 280.667 33.6247Z" fill="white"/>
<path d="M37.3208 37.5479C40.0088 37.5479 41.6055 35.4458 41.6055 31.8862C41.6055 30.5459 41.3491 29.418 40.8584 28.5464C40.1479 27.1914 38.9248 26.459 37.3794 26.459C35.0796 26.459 33.4536 28.0044 33.4536 30.1724C33.4536 32.2085 34.9185 33.688 36.9326 33.688C38.1704 33.688 39.1738 33.1094 39.6719 32.106H39.6938C39.6938 32.106 39.7231 32.106 39.7305 32.106C39.7451 32.106 39.7964 32.106 39.7964 32.106C39.7964 34.5229 38.8809 35.9658 37.3354 35.9658C36.4272 35.9658 35.7241 35.4678 35.4824 34.6694H33.6001C33.915 36.4053 35.3872 37.5479 37.3208 37.5479ZM37.3867 32.1865C36.1709 32.1865 35.3066 31.3223 35.3066 30.1138C35.3066 28.9346 36.2148 28.0337 37.394 28.0337C38.5732 28.0337 39.4814 28.9492 39.4814 30.1431C39.4814 31.3223 38.5952 32.1865 37.3867 32.1865Z" fill="black"/>
<path d="M44.6966 37.4453C45.3924 37.4453 45.8685 36.9473 45.8685 36.2881C45.8685 35.6216 45.3924 35.1309 44.6966 35.1309C44.0081 35.1309 43.5247 35.6216 43.5247 36.2881C43.5247 36.9473 44.0081 37.4453 44.6966 37.4453ZM44.6966 31.9521C45.3924 31.9521 45.8685 31.4614 45.8685 30.8022C45.8685 30.1357 45.3924 29.645 44.6966 29.645C44.0081 29.645 43.5247 30.1357 43.5247 30.8022C43.5247 31.4614 44.0081 31.9521 44.6966 31.9521Z" fill="black"/>
<path d="M52.7242 37.2915H54.5333V35.3213H55.9615V33.7246H54.5333V26.7227H51.8673C49.9996 29.5352 48.5128 31.8862 47.5606 33.6367V35.3213H52.7242V37.2915ZM49.3111 33.6587C50.5416 31.4907 51.6402 29.7549 52.651 28.2607H52.7535V33.7686H49.3111V33.6587Z" fill="black"/>
<path d="M59.9901 37.2915H61.8798V26.7227H59.9975L57.2362 28.6562V30.4727L59.8656 28.627H59.9901V37.2915Z" fill="black"/>
<rect x="104.308" y="734.03" width="123.692" height="4.64576" rx="2.32288" fill="white"/>
<g filter="url(#filter0_d_676_12572)">
<rect width="360" height="800" rx="24" fill="#646262"/>
</g>
<rect x="22.1538" y="28.8037" width="315.692" height="743.322" rx="24" fill="white"/>
<path d="M70 7.2915H289V7.2915C286.894 7.89419 285.418 9.78675 285.345 11.976L285.317 12.8533V12.8533C285.317 26.3502 274.375 37.2915 260.878 37.2915H98.1217C84.6249 37.2915 73.6835 26.3502 73.6835 12.8533V12.8533L73.6545 11.976C73.5823 9.78675 72.1059 7.89419 70 7.2915V7.2915Z" fill="white"/>
<path opacity="0.35" d="M323.667 27.1245H340.333C341.53 27.1245 342.5 28.0946 342.5 29.2912V35.2912C342.5 36.4878 341.53 37.4578 340.333 37.4578H323.667C322.47 37.4578 321.5 36.4878 321.5 35.2912V29.2912C321.5 28.0946 322.47 27.1245 323.667 27.1245Z" stroke="white"/>
<path opacity="0.4" d="M344 30.291V34.291C344.805 33.9522 345.328 33.1641 345.328 32.291C345.328 31.4179 344.805 30.6298 344 30.291" fill="white"/>
<path d="M323 29.9578C323 29.2215 323.597 28.6245 324.333 28.6245H339.667C340.403 28.6245 341 29.2215 341 29.9578V34.6245C341 35.3609 340.403 35.9578 339.667 35.9578H324.333C323.597 35.9578 323 35.3609 323 34.6245V29.9578Z" fill="white"/>
<path fill-rule="evenodd" clip-rule="evenodd" d="M308.33 28.8994C310.546 28.8995 312.678 29.7509 314.283 31.2777C314.404 31.3956 314.598 31.3941 314.717 31.2744L315.873 30.1077C315.933 30.047 315.967 29.9648 315.966 29.8792C315.966 29.7936 315.931 29.7117 315.87 29.6517C311.655 25.6122 305.005 25.6122 300.79 29.6517C300.729 29.7117 300.694 29.7935 300.694 29.8791C300.693 29.9647 300.727 30.047 300.787 30.1077L301.943 31.2744C302.062 31.3943 302.256 31.3958 302.377 31.2777C303.983 29.7508 306.114 28.8994 308.33 28.8994ZM308.33 32.6951C309.548 32.695 310.722 33.1475 311.624 33.9647C311.747 34.0807 311.939 34.0782 312.058 33.9591L313.212 32.7924C313.273 32.7312 313.307 32.6482 313.306 32.5619C313.305 32.4757 313.27 32.3933 313.208 32.3334C310.46 29.777 306.204 29.777 303.455 32.3334C303.393 32.3933 303.358 32.4757 303.357 32.562C303.356 32.6483 303.39 32.7313 303.451 32.7924L304.605 33.9591C304.724 34.0782 304.917 34.0807 305.039 33.9647C305.941 33.1481 307.114 32.6956 308.33 32.6951ZM310.643 35.2489C310.645 35.3354 310.611 35.4188 310.549 35.4794L308.552 37.4951C308.494 37.5543 308.414 37.5876 308.33 37.5876C308.247 37.5876 308.167 37.5543 308.109 37.4951L306.111 35.4794C306.049 35.4187 306.015 35.3353 306.017 35.2488C306.019 35.1623 306.057 35.0804 306.121 35.0224C307.396 33.9435 309.265 33.9435 310.54 35.0224C310.604 35.0804 310.642 35.1624 310.643 35.2489Z" fill="white"/>
<path fill-rule="evenodd" clip-rule="evenodd" d="M294.667 26.958H293.667C293.114 26.958 292.667 27.4057 292.667 27.958V36.6247C292.667 37.177 293.114 37.6247 293.667 37.6247H294.667C295.219 37.6247 295.667 37.177 295.667 36.6247V27.958C295.667 27.4057 295.219 26.958 294.667 26.958ZM289 29.2913H290C290.552 29.2913 291 29.7391 291 30.2913V36.6247C291 37.177 290.552 37.6247 290 37.6247H289C288.448 37.6247 288 37.177 288 36.6247V30.2913C288 29.7391 288.448 29.2913 289 29.2913ZM285.333 31.6247H284.333C283.781 31.6247 283.333 32.0724 283.333 32.6247V36.6247C283.333 37.177 283.781 37.6247 284.333 37.6247H285.333C285.886 37.6247 286.333 37.177 286.333 36.6247V32.6247C286.333 32.0724 285.886 31.6247 285.333 31.6247ZM280.667 33.6247H279.667C279.114 33.6247 278.667 34.0724 278.667 34.6247V36.6247C278.667 37.177 279.114 37.6247 279.667 37.6247H280.667C281.219 37.6247 281.667 37.177 281.667 36.6247V34.6247C281.667 34.0724 281.219 33.6247 280.667 33.6247Z" fill="white"/>
<path d="M37.3208 37.5479C40.0088 37.5479 41.6055 35.4458 41.6055 31.8862C41.6055 30.5459 41.3491 29.418 40.8584 28.5464C40.1479 27.1914 38.9248 26.459 37.3794 26.459C35.0796 26.459 33.4536 28.0044 33.4536 30.1724C33.4536 32.2085 34.9185 33.688 36.9326 33.688C38.1704 33.688 39.1738 33.1094 39.6719 32.106H39.6938C39.6938 32.106 39.7231 32.106 39.7305 32.106C39.7451 32.106 39.7964 32.106 39.7964 32.106C39.7964 34.5229 38.8809 35.9658 37.3354 35.9658C36.4272 35.9658 35.7241 35.4678 35.4824 34.6694H33.6001C33.915 36.4053 35.3872 37.5479 37.3208 37.5479ZM37.3867 32.1865C36.1709 32.1865 35.3066 31.3223 35.3066 30.1138C35.3066 28.9346 36.2148 28.0337 37.394 28.0337C38.5732 28.0337 39.4814 28.9492 39.4814 30.1431C39.4814 31.3223 38.5952 32.1865 37.3867 32.1865Z" fill="black"/>
<path d="M44.6966 37.4453C45.3924 37.4453 45.8685 36.9473 45.8685 36.2881C45.8685 35.6216 45.3924 35.1309 44.6966 35.1309C44.0081 35.1309 43.5247 35.6216 43.5247 36.2881C43.5247 36.9473 44.0081 37.4453 44.6966 37.4453ZM44.6966 31.9521C45.3924 31.9521 45.8685 31.4614 45.8685 30.8022C45.8685 30.1357 45.3924 29.645 44.6966 29.645C44.0081 29.645 43.5247 30.1357 43.5247 30.8022C43.5247 31.4614 44.0081 31.9521 44.6966 31.9521Z" fill="black"/>
<path d="M52.7242 37.2915H54.5333V35.3213H55.9615V33.7246H54.5333V26.7227H51.8673C49.9996 29.5352 48.5128 31.8862 47.5606 33.6367V35.3213H52.7242V37.2915ZM49.3111 33.6587C50.5416 31.4907 51.6402 29.7549 52.651 28.2607H52.7535V33.7686H49.3111V33.6587Z" fill="black"/>
<path d="M59.9901 37.2915H61.8798V26.7227H59.9975L57.2362 28.6562V30.4727L59.8656 28.627H59.9901V37.2915Z" fill="black"/>
<rect x="104.308" y="734.03" width="123.692" height="4.64576" rx="2.32288" fill="white"/>
<g filter="url(#filter1_d_676_12572)">
<rect width="360" height="800" rx="23" fill="#FF8AAE"/>
</g>
<path d="M22.1538 64.8828C22.1538 51.628 32.899 40.8828 46.1538 40.8828H313.846C327.101 40.8828 337.846 51.628 337.846 64.8828V748.126C337.846 761.38 327.101 772.126 313.846 772.126H46.1538C32.899 772.126 22.1538 761.38 22.1538 748.126V64.8828Z" fill="white"/>
</g>
<defs>
<filter id="filter0_d_676_12572" x="-16" y="-12" width="392" height="832" filterUnits="userSpaceOnUse" color-interpolation-filters="sRGB">
<feFlood flood-opacity="0" result="BackgroundImageFix"/>
<feColorMatrix in="SourceAlpha" type="matrix" values="0 0 0 0 0 0 0 0 0 0 0 0 0 0 0 0 0 0 127 0" result="hardAlpha"/>
<feOffset dy="4"/>
<feGaussianBlur stdDeviation="8"/>
<feColorMatrix type="matrix" values="0 0 0 0 0 0 0 0 0 0 0 0 0 0 0 0 0 0 0.25 0"/>
<feBlend mode="normal" in2="BackgroundImageFix" result="effect1_dropShadow_676_12572"/>
<feBlend mode="normal" in="SourceGraphic" in2="effect1_dropShadow_676_12572" result="shape"/>
</filter>
<filter id="filter1_d_676_12572" x="-16" y="-12" width="392" height="832" filterUnits="userSpaceOnUse" color-interpolation-filters="sRGB">
<feFlood flood-opacity="0" result="BackgroundImageFix"/>
<feColorMatrix in="SourceAlpha" type="matrix" values="0 0 0 0 0 0 0 0 0 0 0 0 0 0 0 0 0 0 127 0" result="hardAlpha"/>
<feOffset dy="4"/>
<feGaussianBlur stdDeviation="8"/>
<feColorMatrix type="matrix" values="0 0 0 0 0 0 0 0 0 0 0 0 0 0 0 0 0 0 0.25 0"/>
<feBlend mode="normal" in2="BackgroundImageFix" result="effect1_dropShadow_676_12572"/>
<feBlend mode="normal" in="SourceGraphic" in2="effect1_dropShadow_676_12572" result="shape"/>
</filter>
<clipPath id="clip0_676_12572">
<rect width="360" height="800" fill="white"/>
</clipPath>
</defs>
</svg>
