<svg width="360" height="800" viewBox="0 0 360 800" fill="none" xmlns="http://www.w3.org/2000/svg">
<g clip-path="url(#clip0_608_11834)">
<path d="M70 7.29152H289V7.29152C286.894 7.89421 285.418 9.78677 285.345 11.976L285.317 12.8533V12.8533C285.317 26.3502 274.375 37.2915 260.878 37.2915H98.1217C84.6249 37.2915 73.6835 26.3502 73.6835 12.8533V12.8533L73.6545 11.976C73.5823 9.78677 72.1059 7.89421 70 7.29152V7.29152Z" fill="white"/>
<path opacity="0.35" d="M323.667 27.1249H340.333C341.53 27.1249 342.5 28.0949 342.5 29.2916V35.2916C342.5 36.4882 341.53 37.4582 340.333 37.4582H323.667C322.47 37.4582 321.5 36.4882 321.5 35.2916V29.2916C321.5 28.0949 322.47 27.1249 323.667 27.1249Z" stroke="white"/>
<path opacity="0.4" d="M344 30.2916V34.2916C344.805 33.9528 345.328 33.1647 345.328 32.2916C345.328 31.4184 344.805 30.6303 344 30.2916" fill="white"/>
<path d="M323 29.9582C323 29.2218 323.597 28.6249 324.333 28.6249H339.667C340.403 28.6249 341 29.2218 341 29.9582V34.6249C341 35.3613 340.403 35.9582 339.667 35.9582H324.333C323.597 35.9582 323 35.3613 323 34.6249V29.9582Z" fill="white"/>
<path fill-rule="evenodd" clip-rule="evenodd" d="M308.33 28.8995C310.546 28.8996 312.677 29.7511 314.283 31.2779C314.404 31.3957 314.597 31.3943 314.716 31.2745L315.872 30.1079C315.933 30.0471 315.966 29.9649 315.966 29.8793C315.965 29.7937 315.931 29.7119 315.87 29.6519C311.655 25.6123 305.005 25.6123 300.79 29.6519C300.729 29.7118 300.694 29.7937 300.693 29.8792C300.693 29.9648 300.726 30.0471 300.787 30.1079L301.943 31.2745C302.062 31.3944 302.255 31.3959 302.376 31.2779C303.982 29.751 306.114 28.8995 308.33 28.8995ZM308.33 32.6952C309.547 32.6951 310.721 33.1477 311.624 33.9649C311.746 34.0808 311.938 34.0783 312.057 33.9592L313.212 32.7925C313.273 32.7313 313.307 32.6483 313.306 32.5621C313.305 32.4758 313.269 32.3935 313.207 32.3335C310.459 29.7772 306.203 29.7772 303.455 32.3335C303.393 32.3935 303.357 32.4758 303.357 32.5621C303.356 32.6484 303.39 32.7314 303.451 32.7925L304.605 33.9592C304.724 34.0783 304.916 34.0808 305.038 33.9649C305.94 33.1482 307.113 32.6957 308.33 32.6952ZM310.643 35.249C310.645 35.3355 310.611 35.4189 310.549 35.4795L308.552 37.4952C308.493 37.5544 308.413 37.5878 308.33 37.5878C308.247 37.5878 308.167 37.5544 308.108 37.4952L306.111 35.4795C306.049 35.4189 306.015 35.3355 306.017 35.2489C306.019 35.1624 306.056 35.0805 306.12 35.0225C307.396 33.9437 309.264 33.9437 310.54 35.0225C310.604 35.0806 310.641 35.1625 310.643 35.249Z" fill="white"/>
<path fill-rule="evenodd" clip-rule="evenodd" d="M294.667 26.9581H293.667C293.114 26.9581 292.667 27.4059 292.667 27.9581V36.6248C292.667 37.1771 293.114 37.6248 293.667 37.6248H294.667C295.219 37.6248 295.667 37.1771 295.667 36.6248V27.9581C295.667 27.4059 295.219 26.9581 294.667 26.9581ZM289 29.2915H290C290.552 29.2915 291 29.7392 291 30.2915V36.6248C291 37.1771 290.552 37.6248 290 37.6248H289C288.448 37.6248 288 37.1771 288 36.6248V30.2915C288 29.7392 288.448 29.2915 289 29.2915ZM285.333 31.6248H284.333C283.781 31.6248 283.333 32.0725 283.333 32.6248V36.6248C283.333 37.1771 283.781 37.6248 284.333 37.6248H285.333C285.885 37.6248 286.333 37.1771 286.333 36.6248V32.6248C286.333 32.0725 285.885 31.6248 285.333 31.6248ZM280.667 33.6248H279.667C279.114 33.6248 278.667 34.0725 278.667 34.6248V36.6248C278.667 37.1771 279.114 37.6248 279.667 37.6248H280.667C281.219 37.6248 281.667 37.1771 281.667 36.6248V34.6248C281.667 34.0725 281.219 33.6248 280.667 33.6248Z" fill="white"/>
<path d="M37.3208 37.5479C40.0088 37.5479 41.6055 35.4458 41.6055 31.8862C41.6055 30.5459 41.3491 29.418 40.8584 28.5464C40.1479 27.1914 38.9248 26.459 37.3794 26.459C35.0796 26.459 33.4536 28.0044 33.4536 30.1724C33.4536 32.2085 34.9185 33.688 36.9326 33.688C38.1704 33.688 39.1738 33.1094 39.6719 32.106H39.6938C39.6938 32.106 39.7231 32.106 39.7305 32.106C39.7451 32.106 39.7964 32.106 39.7964 32.106C39.7964 34.523 38.8809 35.9658 37.3354 35.9658C36.4272 35.9658 35.7241 35.4678 35.4824 34.6694H33.6001C33.915 36.4053 35.3872 37.5479 37.3208 37.5479ZM37.3867 32.1865C36.1709 32.1865 35.3066 31.3223 35.3066 30.1138C35.3066 28.9346 36.2148 28.0337 37.394 28.0337C38.5732 28.0337 39.4814 28.9492 39.4814 30.1431C39.4814 31.3223 38.5952 32.1865 37.3867 32.1865Z" fill="black"/>
<path d="M44.6966 37.4453C45.3924 37.4453 45.8685 36.9473 45.8685 36.2881C45.8685 35.6216 45.3924 35.1309 44.6966 35.1309C44.0081 35.1309 43.5247 35.6216 43.5247 36.2881C43.5247 36.9473 44.0081 37.4453 44.6966 37.4453ZM44.6966 31.9522C45.3924 31.9522 45.8685 31.4614 45.8685 30.8023C45.8685 30.1358 45.3924 29.645 44.6966 29.645C44.0081 29.645 43.5247 30.1358 43.5247 30.8023C43.5247 31.4614 44.0081 31.9522 44.6966 31.9522Z" fill="black"/>
<path d="M52.7242 37.2915H54.5333V35.3213H55.9615V33.7246H54.5333V26.7227H51.8673C49.9996 29.5352 48.5128 31.8862 47.5606 33.6367V35.3213H52.7242V37.2915ZM49.3111 33.6587C50.5416 31.4907 51.6402 29.7549 52.651 28.2608H52.7535V33.7686H49.3111V33.6587Z" fill="black"/>
<path d="M59.9901 37.2915H61.8798V26.7227H59.9975L57.2362 28.6563V30.4727L59.8656 28.627H59.9901V37.2915Z" fill="black"/>
<rect x="104.308" y="734.03" width="123.692" height="4.64576" rx="2.32288" fill="white"/>
<g filter="url(#filter0_d_608_11834)">
<rect width="360" height="800" rx="24" fill="#646262"/>
</g>
<rect x="22.1538" y="28.8037" width="315.692" height="743.322" rx="24" fill="white"/>
<path d="M70 7.29152H289V7.29152C286.894 7.89421 285.418 9.78677 285.345 11.976L285.317 12.8533V12.8533C285.317 26.3502 274.375 37.2915 260.878 37.2915H98.1217C84.6249 37.2915 73.6835 26.3502 73.6835 12.8533V12.8533L73.6545 11.976C73.5823 9.78677 72.1059 7.89421 70 7.29152V7.29152Z" fill="white"/>
<path opacity="0.35" d="M323.667 27.1249H340.333C341.53 27.1249 342.5 28.0949 342.5 29.2916V35.2916C342.5 36.4882 341.53 37.4582 340.333 37.4582H323.667C322.47 37.4582 321.5 36.4882 321.5 35.2916V29.2916C321.5 28.0949 322.47 27.1249 323.667 27.1249Z" stroke="white"/>
<path opacity="0.4" d="M344 30.2916V34.2916C344.805 33.9528 345.328 33.1647 345.328 32.2916C345.328 31.4184 344.805 30.6303 344 30.2916" fill="white"/>
<path d="M323 29.9582C323 29.2218 323.597 28.6249 324.333 28.6249H339.667C340.403 28.6249 341 29.2218 341 29.9582V34.6249C341 35.3613 340.403 35.9582 339.667 35.9582H324.333C323.597 35.9582 323 35.3613 323 34.6249V29.9582Z" fill="white"/>
<path fill-rule="evenodd" clip-rule="evenodd" d="M308.33 28.8995C310.546 28.8996 312.677 29.7511 314.283 31.2779C314.404 31.3957 314.597 31.3943 314.716 31.2745L315.872 30.1079C315.933 30.0471 315.966 29.9649 315.966 29.8793C315.965 29.7937 315.931 29.7119 315.87 29.6519C311.655 25.6123 305.005 25.6123 300.79 29.6519C300.729 29.7118 300.694 29.7937 300.693 29.8792C300.693 29.9648 300.726 30.0471 300.787 30.1079L301.943 31.2745C302.062 31.3944 302.255 31.3959 302.376 31.2779C303.982 29.751 306.114 28.8995 308.33 28.8995ZM308.33 32.6952C309.547 32.6951 310.721 33.1477 311.624 33.9649C311.746 34.0808 311.938 34.0783 312.057 33.9592L313.212 32.7925C313.273 32.7313 313.307 32.6483 313.306 32.5621C313.305 32.4758 313.269 32.3935 313.207 32.3335C310.459 29.7772 306.203 29.7772 303.455 32.3335C303.393 32.3935 303.357 32.4758 303.357 32.5621C303.356 32.6484 303.39 32.7314 303.451 32.7925L304.605 33.9592C304.724 34.0783 304.916 34.0808 305.038 33.9649C305.94 33.1482 307.113 32.6957 308.33 32.6952ZM310.643 35.249C310.645 35.3355 310.611 35.4189 310.549 35.4795L308.552 37.4952C308.493 37.5544 308.413 37.5878 308.33 37.5878C308.247 37.5878 308.167 37.5544 308.108 37.4952L306.111 35.4795C306.049 35.4189 306.015 35.3355 306.017 35.2489C306.019 35.1624 306.056 35.0805 306.12 35.0225C307.396 33.9437 309.264 33.9437 310.54 35.0225C310.604 35.0806 310.641 35.1625 310.643 35.249Z" fill="white"/>
<path fill-rule="evenodd" clip-rule="evenodd" d="M294.667 26.9581H293.667C293.114 26.9581 292.667 27.4059 292.667 27.9581V36.6248C292.667 37.1771 293.114 37.6248 293.667 37.6248H294.667C295.219 37.6248 295.667 37.1771 295.667 36.6248V27.9581C295.667 27.4059 295.219 26.9581 294.667 26.9581ZM289 29.2915H290C290.552 29.2915 291 29.7392 291 30.2915V36.6248C291 37.1771 290.552 37.6248 290 37.6248H289C288.448 37.6248 288 37.1771 288 36.6248V30.2915C288 29.7392 288.448 29.2915 289 29.2915ZM285.333 31.6248H284.333C283.781 31.6248 283.333 32.0725 283.333 32.6248V36.6248C283.333 37.1771 283.781 37.6248 284.333 37.6248H285.333C285.885 37.6248 286.333 37.1771 286.333 36.6248V32.6248C286.333 32.0725 285.885 31.6248 285.333 31.6248ZM280.667 33.6248H279.667C279.114 33.6248 278.667 34.0725 278.667 34.6248V36.6248C278.667 37.1771 279.114 37.6248 279.667 37.6248H280.667C281.219 37.6248 281.667 37.1771 281.667 36.6248V34.6248C281.667 34.0725 281.219 33.6248 280.667 33.6248Z" fill="white"/>
<path d="M37.3208 37.5479C40.0088 37.5479 41.6055 35.4458 41.6055 31.8862C41.6055 30.5459 41.3491 29.418 40.8584 28.5464C40.1479 27.1914 38.9248 26.459 37.3794 26.459C35.0796 26.459 33.4536 28.0044 33.4536 30.1724C33.4536 32.2085 34.9185 33.688 36.9326 33.688C38.1704 33.688 39.1738 33.1094 39.6719 32.106H39.6938C39.6938 32.106 39.7231 32.106 39.7305 32.106C39.7451 32.106 39.7964 32.106 39.7964 32.106C39.7964 34.523 38.8809 35.9658 37.3354 35.9658C36.4272 35.9658 35.7241 35.4678 35.4824 34.6694H33.6001C33.915 36.4053 35.3872 37.5479 37.3208 37.5479ZM37.3867 32.1865C36.1709 32.1865 35.3066 31.3223 35.3066 30.1138C35.3066 28.9346 36.2148 28.0337 37.394 28.0337C38.5732 28.0337 39.4814 28.9492 39.4814 30.1431C39.4814 31.3223 38.5952 32.1865 37.3867 32.1865Z" fill="black"/>
<path d="M44.6966 37.4453C45.3924 37.4453 45.8685 36.9473 45.8685 36.2881C45.8685 35.6216 45.3924 35.1309 44.6966 35.1309C44.0081 35.1309 43.5247 35.6216 43.5247 36.2881C43.5247 36.9473 44.0081 37.4453 44.6966 37.4453ZM44.6966 31.9522C45.3924 31.9522 45.8685 31.4614 45.8685 30.8023C45.8685 30.1358 45.3924 29.645 44.6966 29.645C44.0081 29.645 43.5247 30.1358 43.5247 30.8023C43.5247 31.4614 44.0081 31.9522 44.6966 31.9522Z" fill="black"/>
<path d="M52.7242 37.2915H54.5333V35.3213H55.9615V33.7246H54.5333V26.7227H51.8673C49.9996 29.5352 48.5128 31.8862 47.5606 33.6367V35.3213H52.7242V37.2915ZM49.3111 33.6587C50.5416 31.4907 51.6402 29.7549 52.651 28.2608H52.7535V33.7686H49.3111V33.6587Z" fill="black"/>
<path d="M59.9901 37.2915H61.8798V26.7227H59.9975L57.2362 28.6563V30.4727L59.8656 28.627H59.9901V37.2915Z" fill="black"/>
<rect x="104.308" y="734.03" width="123.692" height="4.64576" rx="2.32288" fill="white"/>
<g filter="url(#filter1_d_608_11834)">
<rect width="360" height="800" rx="23" fill="#FF8AAE"/>
</g>
<path d="M22 64.8827C22 51.6279 32.7452 40.8827 46 40.8827H313.692C326.947 40.8827 337.692 51.6279 337.692 64.8827V748.125C337.692 761.38 326.947 772.125 313.692 772.125H46C32.7452 772.125 22 761.38 22 748.125V64.8827Z" fill="white"/>
<path d="M273.265 273.919C255.29 256.58 225.673 263.531 204.866 268.959C192.23 272.254 179.456 275.763 166.439 276.069C154.339 276.353 145.052 272.423 134.274 266.851C127.505 263.351 122.499 257.821 116.111 253.703C109.522 249.456 102.595 245.769 95.1667 243.98C82.3918 240.903 72.107 245.164 66.209 258.55C60.5448 271.406 59.5078 286.487 60.2578 300.664C60.719 309.38 61.9802 318.285 64.1865 326.819C71.2893 354.281 93.3217 373.04 118.226 373.04H287.606C293.037 365.719 296.47 357.218 298.227 347.838C303.317 320.681 291.768 291.768 273.265 273.919Z" fill="url(#paint0_radial_608_11834)"/>
<path d="M162.295 379.72L186.649 386.215" stroke="#EECFF8" stroke-width="0.385417" stroke-miterlimit="10"/>
<path d="M187.939 386.215L179.391 381.019" stroke="#EECFF8" stroke-width="0.385417" stroke-miterlimit="10"/>
<path d="M173.908 386.586L148.587 387.328" stroke="#EECFF8" stroke-width="0.385417" stroke-miterlimit="10"/>
<path d="M180.709 386.593C181.02 386.593 181.02 386.037 180.709 386.037C180.398 386.037 180.396 386.593 180.709 386.593Z" fill="#EECFF8"/>
<path d="M189.51 384.25C189.821 384.25 189.821 383.693 189.51 383.693C189.199 383.693 189.197 384.25 189.51 384.25Z" fill="#EECFF8"/>
<path d="M189.59 387.248C189.902 387.248 189.902 386.692 189.59 386.692C189.279 386.692 189.279 387.248 189.59 387.248Z" fill="#EECFF8"/>
<path d="M143.631 386.968C143.942 386.968 143.942 386.411 143.631 386.411C143.32 386.411 143.32 386.968 143.631 386.968Z" fill="#EECFF8"/>
<path d="M166.123 375.81C166.434 375.81 166.434 375.253 166.123 375.253C165.812 375.253 165.81 375.81 166.123 375.81Z" fill="#EECFF8"/>
<path d="M155.528 370.186C155.84 370.186 155.84 369.629 155.528 369.629C155.217 369.629 155.217 370.186 155.528 370.186Z" fill="#EECFF8"/>
<path d="M225.679 386.307H246.323" stroke="#EECFF8" stroke-width="0.385417" stroke-miterlimit="10"/>
<path d="M249.709 386.307H291.642" stroke="#EECFF8" stroke-width="0.385417" stroke-miterlimit="10"/>
<path d="M237.049 383.895H254.144" stroke="#EECFF8" stroke-width="0.385417" stroke-miterlimit="10"/>
<path d="M269.343 374.936C269.343 374.936 269.885 375.975 272.956 376.183C276.027 376.391 276.027 379.716 277.833 379.716C279.639 379.716 278.736 377.846 278.014 377.014C277.291 376.183 275.846 374.728 275.846 374.728C275.846 374.728 273.498 374.105 272.775 373.066C272.053 372.027 270.066 371.195 270.066 371.195L269.343 374.936Z" fill="#FB8F8F"/>
<path d="M269.343 374.936C269.343 374.936 269.885 375.975 272.956 376.183C276.027 376.391 276.027 379.716 277.833 379.716C279.639 379.716 278.736 377.846 278.014 377.014C277.291 376.183 275.846 374.728 275.846 374.728C275.846 374.728 273.498 374.105 272.775 373.066C272.053 372.027 270.066 371.195 270.066 371.195L269.343 374.936Z" fill="url(#paint1_radial_608_11834)"/>
<path d="M269.343 374.936C269.343 374.936 269.885 375.975 272.956 376.183C276.027 376.391 276.027 379.716 277.833 379.716C279.639 379.716 278.736 377.846 278.014 377.014C277.291 376.183 275.846 374.728 275.846 374.728C275.846 374.728 273.498 374.105 272.775 373.066C272.053 372.027 270.066 371.195 270.066 371.195L269.343 374.936Z" fill="url(#paint2_radial_608_11834)"/>
<path d="M249.833 370.57C249.833 370.57 249.111 372.856 247.485 375.142C247.485 375.142 246.582 375.766 248.027 376.805C249.472 377.844 251.459 378.883 251.64 380.753C251.64 380.753 251.82 381.585 250.917 381.793C250.014 382 248.569 380.961 248.569 380.961C248.569 380.961 247.124 379.299 245.679 378.467C244.234 377.636 242.789 376.805 242.789 375.766C242.789 374.726 244.414 371.609 244.414 371.609C244.414 371.609 248.388 367.452 249.833 370.57Z" fill="#FB8F8F"/>
<path d="M249.833 370.57C249.833 370.57 249.111 372.856 247.485 375.142C247.485 375.142 246.582 375.766 248.027 376.805C249.472 377.844 251.459 378.883 251.64 380.753C251.64 380.753 251.82 381.585 250.917 381.793C250.014 382 248.569 380.961 248.569 380.961C248.569 380.961 247.124 379.299 245.679 378.467C244.234 377.636 242.789 376.805 242.789 375.766C242.789 374.726 244.414 371.609 244.414 371.609C244.414 371.609 248.388 367.452 249.833 370.57Z" fill="url(#paint3_radial_608_11834)"/>
<path d="M249.833 370.57C249.833 370.57 249.111 372.856 247.485 375.142C247.485 375.142 246.582 375.766 248.027 376.805C249.472 377.844 251.459 378.883 251.64 380.753C251.64 380.753 251.82 381.585 250.917 381.793C250.014 382 248.569 380.961 248.569 380.961C248.569 380.961 247.124 379.299 245.679 378.467C244.234 377.636 242.789 376.805 242.789 375.766C242.789 374.726 244.414 371.609 244.414 371.609C244.414 371.609 248.388 367.452 249.833 370.57Z" fill="url(#paint4_radial_608_11834)"/>
<path d="M259.205 362.192C256.588 362.449 253.954 362.051 251.456 361.112C248.609 360.041 243.411 358.625 238.631 360.178C234.616 361.481 232.302 364.201 229.785 366.378C227.157 368.647 223.867 369.653 220.601 369.236L218.493 368.967C218.3 368.942 218.185 369.21 218.321 369.371C218.958 370.126 220.913 371.44 226.527 370.364C234.115 368.909 236.644 365.168 236.644 365.168C236.644 365.168 236.824 368.909 235.921 370.779C235.018 372.65 232.489 375.767 232.489 375.767L234.476 381.795C234.476 381.795 235.741 382.418 237.547 381.795L238.089 381.171C238.089 381.171 238.269 379.508 237.005 379.301C237.005 379.301 236.102 378.885 236.644 377.014C237.186 375.144 238.089 374.52 242.063 374.52C246.037 374.52 247.845 371.403 247.845 371.403C247.845 371.403 251.277 371.611 253.627 373.897C255.975 376.183 262.479 378.885 266.272 377.43C266.272 377.43 267.898 379.301 268.079 380.755C268.259 382.21 268.44 383.042 270.427 382.834C270.427 382.834 271.872 382.626 271.511 381.379C271.15 380.132 270.246 381.379 269.885 379.716C269.524 378.054 269.343 376.183 269.343 376.183C269.343 376.183 271.872 375.144 271.511 370.156C271.15 365.168 272.956 362.464 275.485 362.88C278.014 363.296 280.542 363.711 280.542 363.711C280.542 363.711 282.71 364.543 285.058 362.672C287.407 360.802 287.768 359.763 287.768 359.763L287.587 358.723C287.587 358.723 281.444 356.022 280.721 355.398C279.999 354.775 277.47 352.073 277.47 352.073C277.47 352.073 270.604 352.073 268.979 353.943C267.353 355.814 265.005 360.386 262.655 361.427C261.77 361.819 260.516 362.064 259.205 362.192Z" fill="#FB8F8F"/>
<path d="M265.143 359.241C265.143 359.241 268.351 364.021 272.686 364.437L271.659 366.673C271.659 366.673 266.364 365.476 263.921 360.557L265.143 359.241Z" fill="url(#paint5_radial_608_11834)"/>
<path d="M259.205 362.192C256.588 362.449 253.954 362.051 251.456 361.112C248.609 360.041 243.411 358.625 238.631 360.178C234.621 361.479 232.309 364.194 229.794 366.369C227.162 368.645 223.861 369.653 220.587 369.234L218.493 368.967C218.3 368.942 218.185 369.21 218.321 369.371C218.958 370.126 220.913 371.44 226.527 370.364C234.115 368.909 236.644 365.168 236.644 365.168C236.644 365.168 236.824 368.909 235.921 370.779C235.018 372.65 232.489 375.767 232.489 375.767L234.476 381.795C234.476 381.795 235.741 382.418 237.547 381.795L238.089 381.171C238.089 381.171 238.269 379.508 237.005 379.301C237.005 379.301 236.102 378.885 236.644 377.014C237.186 375.144 238.089 374.52 242.063 374.52C246.037 374.52 247.845 371.403 247.845 371.403C247.845 371.403 251.277 371.611 253.627 373.897C255.975 376.183 262.479 378.885 266.272 377.43C266.272 377.43 267.898 379.301 268.079 380.755C268.259 382.21 268.44 383.042 270.427 382.834C270.427 382.834 271.872 382.626 271.511 381.379C271.15 380.132 270.246 381.379 269.885 379.716C269.524 378.054 269.343 376.183 269.343 376.183C269.343 376.183 271.872 375.144 271.511 370.156C271.15 365.168 272.956 362.464 275.485 362.88C278.014 363.296 280.542 363.711 280.542 363.711C280.542 363.711 282.71 364.543 285.058 362.672C287.407 360.802 287.768 359.763 287.768 359.763L287.587 358.723C287.587 358.723 281.444 356.022 280.721 355.398C279.999 354.775 277.47 352.073 277.47 352.073C277.47 352.073 270.604 352.073 268.979 353.943C267.353 355.814 265.005 360.386 262.655 361.427C261.77 361.819 260.516 362.064 259.205 362.192Z" fill="url(#paint6_radial_608_11834)"/>
<path d="M242.065 374.52C243.918 374.52 245.3 373.843 246.247 373.118C245.755 372.728 245.226 372.398 244.653 372.145C243.073 371.444 241.302 371.332 239.624 371.221C238.095 371.121 236.633 371.199 235.281 371.911C234.17 373.691 232.488 375.766 232.488 375.766L234.475 381.793C234.475 381.793 235.739 382.416 237.546 381.793L238.087 381.169C238.087 381.169 238.268 379.507 237.004 379.299C237.004 379.299 236.1 378.883 236.642 377.013C237.184 375.142 238.091 374.52 242.065 374.52Z" fill="url(#paint7_radial_608_11834)"/>
<path d="M269.885 379.716C269.769 379.182 269.672 378.629 269.593 378.12C268.777 378.05 267.964 378.306 267.331 378.903C267.682 379.484 268.003 380.156 268.077 380.755C268.258 382.21 268.439 383.042 270.426 382.834C270.426 382.834 271.871 382.626 271.509 381.379C271.151 380.132 270.246 381.379 269.885 379.716Z" fill="url(#paint8_radial_608_11834)"/>
<path d="M280.725 355.396C280.615 355.302 280.464 355.159 280.286 354.986C280.048 355.062 279.811 355.142 279.575 355.229C277.461 356.016 275.266 357.298 274.208 359.664C273.697 360.811 273.479 362.08 273.385 363.368C273.987 362.923 274.701 362.752 275.485 362.88C278.014 363.296 280.543 363.711 280.543 363.711C280.543 363.711 282.71 364.543 285.059 362.672C287.407 360.802 287.768 359.763 287.768 359.763L287.588 358.723C287.591 358.721 281.448 356.02 280.725 355.396Z" fill="url(#paint9_radial_608_11834)"/>
<path d="M277.081 354.574C277.03 354.901 276.893 355.2 276.71 355.457C276.246 356.113 275.246 358.052 275.669 362.255C276.21 367.658 271.333 368.074 270.611 364.541C270.087 361.976 270.324 358.536 270.493 356.842C270.559 356.187 270.901 355.615 271.408 355.307C273.225 354.199 277.507 351.848 277.081 354.574Z" fill="url(#paint10_radial_608_11834)"/>
<path d="M278.918 354.981H279.279L280.544 355.396L281.086 356.435L280.002 357.682L278.918 358.098C277.834 356.643 278.918 354.981 278.918 354.981Z" fill="url(#paint11_radial_608_11834)"/>
<path d="M287.771 359.761L287.59 358.722C287.59 358.722 287.371 358.625 287.01 358.464C287.01 358.464 285.603 358.929 285.784 359.761C285.902 360.304 286.715 360.492 287.263 360.557C287.674 360.037 287.771 359.761 287.771 359.761Z" fill="url(#paint12_radial_608_11834)"/>
<path d="M279.099 357.371C279.349 357.371 279.551 356.998 279.551 356.539C279.551 356.08 279.349 355.708 279.099 355.708C278.849 355.708 278.647 356.08 278.647 356.539C278.647 356.998 278.849 357.371 279.099 357.371Z" fill="url(#paint13_radial_608_11834)"/>
<path d="M279.912 362.153C279.912 362.153 280.454 363.192 282.08 363.607" stroke="#0061FE" stroke-width="0.385417" stroke-miterlimit="10"/>
<path d="M276.751 361.841C276.067 360.045 276.032 358.003 276.751 355.394C276.736 355.415 276.725 355.439 276.711 355.459C276.246 356.114 275.246 358.053 275.669 362.257C275.691 362.487 275.701 362.704 275.706 362.915C276.296 363.012 276.882 363.108 277.431 363.199C277.073 362.68 276.861 362.127 276.751 361.841Z" fill="url(#paint14_radial_608_11834)"/>
<path d="M266.272 377.43C265.369 376.183 265.369 375.352 265.369 375.352C265.911 372.858 265.369 372.026 265.369 372.026C265.369 374.105 264.466 375.144 264.466 375.144C264.466 375.144 259.95 377.222 256.336 372.858C252.723 368.493 252.362 368.078 252.362 368.078C249.833 368.078 247.846 371.403 247.846 371.403L248.043 371.422C248.801 371.505 251.612 371.936 253.628 373.897C255.975 376.183 262.479 378.885 266.272 377.43Z" fill="url(#paint15_radial_608_11834)"/>
<path d="M284.271 361.06C284.505 361.06 284.505 360.642 284.271 360.642C284.039 360.642 284.038 361.06 284.271 361.06Z" fill="#0061FE"/>
<path d="M283.588 362.303C283.744 362.303 283.744 362.025 283.588 362.025C283.431 362.025 283.431 362.303 283.588 362.303Z" fill="#0061FE"/>
<path d="M282.994 361.41C283.151 361.41 283.151 361.132 282.994 361.132C282.839 361.132 282.838 361.41 282.994 361.41Z" fill="#0061FE"/>
<path d="M281.716 361.288C281.794 361.288 281.794 361.149 281.716 361.149C281.637 361.149 281.637 361.288 281.716 361.288Z" fill="#0061FE"/>
<path d="M284.409 361.919C284.486 361.919 284.486 361.78 284.409 361.78C284.331 361.78 284.331 361.919 284.409 361.919Z" fill="#0061FE"/>
<path d="M263.653 360.072C264.052 360.072 264.376 359.7 264.376 359.241C264.376 358.782 264.052 358.41 263.653 358.41C263.255 358.41 262.931 358.782 262.931 359.241C262.931 359.7 263.255 360.072 263.653 360.072Z" stroke="#0144B9" stroke-width="0.385417" stroke-miterlimit="10"/>
<path d="M264.242 359.724L264.494 359.991" stroke="#0144B9" stroke-width="0.385417" stroke-miterlimit="10"/>
<path d="M265.434 363.669C265.434 363.669 267.531 366.452 270.434 366.823" stroke="#0061FE" stroke-width="0.385417" stroke-miterlimit="10"/>
<path d="M275.272 362.184C275.272 362.184 275.433 364.782 274.304 365.71" stroke="#F1D23C" stroke-width="0.385417" stroke-miterlimit="10"/>
<path d="M241.726 373.875C241.726 373.875 245.596 373.875 247.209 371.277" stroke="#F1D23C" stroke-width="0.385417" stroke-miterlimit="10"/>
<path d="M254.628 373.875C254.628 373.875 257.531 376.473 261.079 376.844" stroke="#EECFF8" stroke-width="0.385417" stroke-miterlimit="10"/>
<path d="M235.839 262.815H211.163V279.701H235.839V262.815Z" stroke="#DEF4FF" stroke-width="0.385417" stroke-miterlimit="10"/>
<path d="M234.388 260.773H209.712V277.66H234.388V260.773Z" fill="url(#paint16_radial_608_11834)"/>
<path d="M238.178 256.598C243.077 256.598 247.048 252.029 247.048 246.392C247.048 240.756 243.077 236.186 238.178 236.186C233.278 236.186 229.307 240.756 229.307 246.392C229.307 252.029 233.278 256.598 238.178 256.598Z" stroke="#0061FE" stroke-width="0.385417" stroke-miterlimit="10"/>
<path d="M240.113 256.598C245.013 256.598 248.983 252.029 248.983 246.392C248.983 240.756 245.013 236.186 240.113 236.186C235.213 236.186 231.243 240.756 231.243 246.392C231.243 252.029 235.213 256.598 240.113 256.598Z" fill="#DEF4FF"/>
<path d="M236.807 254.65H217.776V265.412H236.807V254.65Z" fill="#FFDE99"/>
<path d="M236.807 254.65H217.776V265.412H236.807V254.65Z" fill="url(#paint17_radial_608_11834)"/>
<path d="M227.211 260.124L217.776 254.789V265.412H236.807V254.696L227.211 260.124Z" fill="url(#paint18_radial_608_11834)"/>
<path d="M238.823 252.145H219.792V262.907H238.823V252.145Z" fill="#FFDE99"/>
<path d="M229.227 257.619L219.792 252.284V262.907H238.823V252.191L229.227 257.619Z" fill="url(#paint19_radial_608_11834)"/>
<path d="M237.129 255.578H241.161" stroke="#0061FE" stroke-width="0.385417" stroke-miterlimit="10"/>
<path d="M237.129 256.598H241.161" stroke="#0061FE" stroke-width="0.385417" stroke-miterlimit="10"/>
<path d="M237.129 257.712H241.161" stroke="#0061FE" stroke-width="0.385417" stroke-miterlimit="10"/>
<path d="M226.162 268.01H204.551V270.052H226.162V268.01Z" fill="url(#paint20_radial_608_11834)"/>
<path d="M226.162 271.165H204.551V273.206H226.162V271.165Z" fill="url(#paint21_radial_608_11834)"/>
<path d="M240.113 246.405C241.182 246.405 242.048 245.408 242.048 244.178C242.048 242.949 241.182 241.952 240.113 241.952C239.044 241.952 238.178 242.949 238.178 244.178C238.178 245.408 239.044 246.405 240.113 246.405Z" fill="#0061FE"/>
<path d="M244.211 250.833C243.608 248.793 242 247.333 240.113 247.333C238.226 247.333 236.618 248.791 236.015 250.833H244.211Z" fill="#0061FE"/>
<path d="M264.87 264.67H249.387V260.588L247.774 256.691H249.387V252.609H264.87V264.67Z" fill="#0061FE"/>
<path d="M256.322 254.464H271.805V250.382L273.417 246.485H271.805V242.403H256.322V254.464Z" stroke="#0061FE" stroke-width="0.385417" stroke-miterlimit="10"/>
<path d="M257.531 244.351C257.799 244.351 258.015 244.102 258.015 243.794C258.015 243.487 257.799 243.238 257.531 243.238C257.263 243.238 257.047 243.487 257.047 243.794C257.047 244.102 257.263 244.351 257.531 244.351Z" stroke="#0061FE" stroke-width="0.385417" stroke-miterlimit="10"/>
<path d="M256.967 260.031C257.591 260.031 258.096 259.45 258.096 258.732C258.096 258.015 257.591 257.433 256.967 257.433C256.343 257.433 255.838 258.015 255.838 258.732C255.838 259.45 256.343 260.031 256.967 260.031Z" fill="white"/>
<path d="M253.096 260.031C253.72 260.031 254.225 259.45 254.225 258.732C254.225 258.015 253.72 257.433 253.096 257.433C252.472 257.433 251.967 258.015 251.967 258.732C251.967 259.45 252.472 260.031 253.096 260.031Z" fill="white"/>
<path d="M260.837 260.031C261.462 260.031 261.966 259.45 261.966 258.732C261.966 258.015 261.462 257.433 260.837 257.433C260.213 257.433 259.708 258.015 259.708 258.732C259.708 259.45 260.213 260.031 260.837 260.031Z" fill="white"/>
<path d="M256.423 273.815C254.918 272.809 253.057 272.824 251.564 273.856C250.072 274.886 248.211 274.902 246.704 273.897L246.585 273.817C245.08 272.811 243.219 272.826 241.726 273.858C240.234 274.887 238.373 274.904 236.866 273.898L236.747 273.819C235.242 272.813 233.381 272.828 231.888 273.859" stroke="#0061FE" stroke-width="0.385417" stroke-miterlimit="10"/>
<path d="M269.466 237.3C270.801 237.3 271.885 236.053 271.885 234.516C271.885 232.979 270.801 231.733 269.466 231.733C268.131 231.733 267.047 232.979 267.047 234.516C267.047 236.053 268.131 237.3 269.466 237.3Z" stroke="#FA404B" stroke-width="0.385417" stroke-miterlimit="10"/>
<path d="M263.257 265.598H265.515V263" stroke="#FA404B" stroke-width="0.385417" stroke-miterlimit="10"/>
<path d="M105.306 327.959C105.306 327.959 103.142 327.226 100.843 327.237C99.9081 327.241 99.0081 326.834 98.342 326.077C98.0727 325.771 97.7969 325.368 97.5663 324.999C97.2308 324.465 96.5792 324.355 96.126 324.758C93.4794 327.118 85.7348 334.619 86.3348 341.026C86.3751 341.457 86.8412 341.629 87.0928 341.306C88.133 339.976 90.77 336.899 96.4534 331.698C96.4534 331.698 100.427 331.698 102.777 333.776C105.127 335.854 105.306 327.959 105.306 327.959Z" fill="#FFDE99"/>
<path d="M105.306 327.959C105.306 327.959 103.142 327.226 100.843 327.237C99.9081 327.241 99.0081 326.834 98.342 326.077C98.0727 325.771 97.7969 325.368 97.5663 324.999C97.2308 324.465 96.5792 324.355 96.126 324.758C93.4794 327.118 85.7348 334.619 86.3348 341.026C86.3751 341.457 86.8412 341.629 87.0928 341.306C88.133 339.976 90.77 336.899 96.4534 331.698C96.4534 331.698 100.427 331.698 102.777 333.776C105.127 335.854 105.306 327.959 105.306 327.959Z" fill="url(#paint22_radial_608_11834)"/>
<path d="M151.193 324.633C151.193 324.633 138.005 343.548 129.333 348.122C129.333 348.122 103.5 337.105 100.789 333.156C100.789 333.156 101.872 327.545 104.221 326.921C106.569 326.298 120.389 329.311 125.99 336.38C125.99 336.38 132.495 309.15 140.623 306.864C148.755 304.574 151.193 324.633 151.193 324.633Z" fill="#0144B9"/>
<path d="M151.193 324.633C151.193 324.633 138.005 343.548 129.333 348.122C129.333 348.122 103.5 337.105 100.789 333.156C100.789 333.156 101.872 327.545 104.221 326.921C106.569 326.298 120.389 329.311 125.99 336.38C125.99 336.38 132.495 309.15 140.623 306.864C148.755 304.574 151.193 324.633 151.193 324.633Z" fill="url(#paint23_radial_608_11834)"/>
<path d="M189.131 376.599C189.131 376.599 192.021 379.716 193.285 382.21C193.698 383.023 193.956 383.637 194.117 384.097C194.735 385.855 196.537 386.655 197.985 385.753C198.564 385.393 207.568 380.228 211.297 373.259C211.466 372.943 211.203 372.485 210.907 372.628C208.279 373.897 205.565 374.938 201.956 376.599C197.659 378.577 195.271 374.52 193.103 371.403C190.937 368.284 189.131 376.599 189.131 376.599Z" fill="#FFDE99"/>
<path d="M189.131 376.599C189.131 376.599 192.021 379.716 193.285 382.21C193.698 383.023 193.956 383.637 194.117 384.097C194.735 385.855 196.537 386.655 197.985 385.753C198.564 385.393 207.568 380.228 211.297 373.259C211.466 372.943 211.203 372.485 210.907 372.628C208.279 373.897 205.565 374.938 201.956 376.599C197.659 378.577 195.271 374.52 193.103 371.403C190.937 368.284 189.131 376.599 189.131 376.599Z" fill="url(#paint24_radial_608_11834)"/>
<path d="M155.529 303.431C155.529 303.431 173.595 337.521 180.279 347.081C186.964 356.643 194.37 371.401 194.37 371.401C194.37 371.401 189.673 378.885 188.407 378.261C187.143 377.638 187.504 377.43 187.323 376.183C187.143 374.936 162.031 344.589 157.695 336.274C153.359 327.959 152.095 327.335 152.095 327.335C152.095 327.335 136.739 321.308 136.017 309.668C135.294 298.027 144.508 297.404 144.508 297.404L155.529 303.431Z" fill="#0061FE"/>
<path d="M160.317 316.214L174.227 340.327" stroke="#DEF4FF" stroke-width="0.385417" stroke-miterlimit="10"/>
<path d="M174.317 352.071C167.452 347.083 166.007 340.015 160.226 330.037C157.538 325.396 154.224 322.331 151.448 320.377C147.582 317.656 145.7 312.375 146.837 307.328C147.438 304.656 148.187 301.993 148.861 299.783L144.51 297.402C144.51 297.402 144.123 297.428 143.515 297.569L143.426 297.61L138.587 300.438C136.975 302.241 135.736 305.11 136.018 309.666C136.741 321.306 152.096 327.333 152.096 327.333C152.096 327.333 153.361 327.957 157.696 336.272C162.031 344.587 187.144 374.934 187.325 376.181C187.505 377.428 187.144 377.636 188.408 378.26C189.015 378.558 190.413 376.99 191.703 375.278C188.352 369.733 179.751 356.02 174.317 352.071Z" fill="url(#paint25_radial_608_11834)"/>
<path d="M174.317 352.071C167.452 347.083 166.007 340.015 160.226 330.037C154.446 320.059 145.774 317.357 145.774 317.357C145.21 312.941 147.25 305.068 148.861 299.783L144.51 297.402C144.51 297.402 144.123 297.428 143.515 297.569L143.426 297.61L138.587 300.438C136.975 302.241 135.736 305.11 136.018 309.666C136.741 321.306 152.096 327.333 152.096 327.333C152.096 327.333 153.361 327.957 157.696 336.272C162.031 344.587 187.144 374.934 187.325 376.181C187.505 377.428 187.144 377.636 188.408 378.26C189.015 378.558 190.413 376.99 191.703 375.278C188.352 369.733 179.751 356.02 174.317 352.071Z" fill="url(#paint26_radial_608_11834)"/>
<path d="M203.99 303.717C203.99 303.717 211.172 303.015 212.255 303.431C212.255 303.431 212.436 302.807 210.991 301.976C209.546 301.145 206.836 301.56 206.836 301.56L203.404 301.768L203.99 303.717Z" fill="url(#paint27_radial_608_11834)"/>
<path d="M168.537 300.521C168.537 300.521 168.176 301.56 169.44 302.392C170.705 303.223 179.919 306.133 194.01 304.886C194.01 304.886 201.417 303.431 202.501 303.847C202.501 303.847 206.475 298.651 207.017 298.651C207.559 298.651 205.03 297.612 202.14 301.56L197.082 302.6H190.939L188.591 301.768C188.591 301.768 179.377 299.274 173.416 294.077C167.452 288.881 168.537 300.521 168.537 300.521Z" fill="#FFDE99"/>
<path d="M168.537 300.521C168.537 300.521 168.176 301.56 169.44 302.392C170.705 303.223 179.919 306.133 194.01 304.886C194.01 304.886 201.417 303.431 202.501 303.847C202.501 303.847 206.475 298.651 207.017 298.651C207.559 298.651 205.03 297.612 202.14 301.56L197.082 302.6H190.939L188.591 301.768C188.591 301.768 179.377 299.274 173.416 294.077C167.452 288.881 168.537 300.521 168.537 300.521Z" fill="url(#paint28_radial_608_11834)"/>
<path d="M170.524 271.421C170.524 271.421 172.872 288.673 172.511 290.959C172.511 290.959 173.775 290.336 174.137 290.959C174.498 291.583 174.137 292.622 174.137 292.622L175.04 294.077C175.04 294.077 169.44 301.56 168.535 301.56C167.929 301.56 166.997 300.061 166.449 299.076C166.221 298.666 166.181 298.148 166.369 297.714C166.468 297.487 166.548 297.179 166.548 296.78C166.548 295.741 164.381 291.792 164.02 279.736C163.658 267.678 170.524 271.421 170.524 271.421Z" fill="#F1D23C"/>
<path d="M170.524 271.421C170.524 271.421 172.872 288.673 172.511 290.959C172.511 290.959 173.775 290.336 174.137 290.959C174.498 291.583 174.137 292.622 174.137 292.622L175.04 294.077C175.04 294.077 169.44 301.56 168.535 301.56C167.929 301.56 166.997 300.061 166.449 299.076C166.221 298.666 166.181 298.148 166.369 297.714C166.468 297.487 166.548 297.179 166.548 296.78C166.548 295.741 164.381 291.792 164.02 279.736C163.658 267.678 170.524 271.421 170.524 271.421Z" fill="url(#paint29_radial_608_11834)"/>
<path d="M169.079 272.876C169.079 272.876 163.755 292.195 161.491 297.404C160.226 300.313 157.697 303.431 157.697 303.431C154.988 304.054 148.303 300.313 148.303 300.313L155.53 280.566L169.079 272.876Z" fill="#FB8F8F"/>
<path d="M175.04 256.871C175.04 256.871 172.872 258.741 170.163 266.225L167.634 263.523L165.828 260.406L165.466 258.12C165.466 258.12 170.163 254.587 169.621 249.181C169.079 243.776 178.111 249.803 175.04 256.871Z" fill="#FFDE99"/>
<path d="M175.04 256.871C175.04 256.871 172.872 258.741 170.163 266.225L167.634 263.523L165.828 260.406L165.466 258.12C165.466 258.12 170.163 254.587 169.621 249.181C169.079 243.776 178.111 249.803 175.04 256.871Z" fill="url(#paint30_radial_608_11834)"/>
<path d="M179.736 240.449C179.736 240.449 180.098 256.661 177.749 258.947C177.749 258.947 174.137 259.155 172.511 257.285C170.343 254.791 169.801 252.089 169.801 252.089V249.595L166.55 248.14L165.105 242.944L167.453 239.827L173.958 238.788L178.112 238.996L179.736 240.449Z" fill="#FFDE99"/>
<path d="M179.736 240.449C179.736 240.449 180.098 256.661 177.749 258.947C177.749 258.947 174.137 259.155 172.511 257.285C170.343 254.791 169.801 252.089 169.801 252.089V249.595L166.55 248.14L165.105 242.944L167.453 239.827L173.958 238.788L178.112 238.996L179.736 240.449Z" fill="url(#paint31_radial_608_11834)"/>
<path d="M178.796 256.433C179.254 254.408 179.498 251.553 179.625 248.814C178.298 247.214 172.692 248.973 172.692 248.973V249.181L171.608 254.793L176.485 257.91L178.796 256.433Z" fill="url(#paint32_radial_608_11834)"/>
<path d="M174.301 242.681C174.427 242.059 174.737 241.499 175.191 241.131C175.556 240.838 175.962 240.694 176.215 241.176C176.757 242.215 178.022 244.917 180.551 243.67C183.08 242.423 181.454 238.266 181.454 238.266C181.454 238.266 182.718 240.137 182.176 241.384C182.176 241.384 184.705 238.682 182.357 234.524C180.009 230.365 176.757 237.018 175.672 234.524C174.587 232.03 172.782 230.575 171.156 232.237C169.53 233.9 169.711 234.524 169.711 234.524C169.711 234.524 170.072 232.861 168.627 233.069C167.182 233.277 166.46 233.9 164.653 233.277C162.847 232.653 158.871 233.692 161.041 240.552C163.208 247.413 165.737 247.621 165.195 248.868C164.653 250.115 163.75 252.609 166.821 252.401C169.892 252.193 169.6 251.096 169.6 251.096L169.892 249.699C169.892 249.699 167.182 248.66 168.808 246.166C170.434 243.672 171.337 246.166 171.337 246.166C171.337 246.166 173.143 244.295 173.866 241.801C173.866 241.801 173.143 245.127 172.24 245.958C172.24 245.958 173.782 245.247 174.301 242.681Z" fill="#241921"/>
<path d="M174.301 242.681C174.427 242.059 174.737 241.499 175.191 241.131C175.556 240.838 175.962 240.694 176.215 241.176C176.757 242.215 178.022 244.917 180.551 243.67C183.08 242.423 181.454 238.266 181.454 238.266C181.454 238.266 182.718 240.137 182.176 241.384C182.176 241.384 184.705 238.682 182.357 234.524C180.009 230.365 176.757 237.018 175.672 234.524C174.587 232.03 172.782 230.575 171.156 232.237C169.53 233.9 169.711 234.524 169.711 234.524C169.711 234.524 170.072 232.861 168.627 233.069C167.182 233.277 166.46 233.9 164.653 233.277C162.847 232.653 158.871 233.692 161.041 240.552C163.208 247.413 165.737 247.621 165.195 248.868C164.653 250.115 163.75 252.609 166.821 252.401C169.892 252.193 169.6 251.096 169.6 251.096L169.892 249.699C169.892 249.699 167.182 248.66 168.808 246.166C170.434 243.672 171.337 246.166 171.337 246.166C171.337 246.166 173.143 244.295 173.866 241.801C173.866 241.801 173.143 245.127 172.24 245.958C172.24 245.958 173.782 245.247 174.301 242.681Z" fill="url(#paint33_radial_608_11834)"/>
<path d="M171.066 262.69C171.066 262.69 168.356 261.235 167.272 257.702C166.189 254.169 163.479 253.754 163.479 253.754C163.479 253.754 162.757 253.546 163.118 255.208C163.479 256.871 162.576 259.573 159.144 260.196C155.712 260.82 133.31 265.6 130.238 271.837C130.238 271.837 129.335 269.135 128.973 272.252V274.539C128.973 274.539 127.89 272.668 127.709 274.539C127.528 276.409 128.612 276.617 128.612 276.617L129.154 275.993C129.154 275.993 136.381 279.942 135.658 282.436C135.658 282.436 136.742 283.475 136.923 280.774C136.923 280.774 137.103 281.605 138.549 280.981L138.729 279.942C138.729 279.942 143.787 278.903 146.679 278.695C146.679 278.695 140.716 288.673 138.549 290.128C136.381 291.583 124.096 302.6 124.096 302.6L107.654 313.616C107.654 313.616 114.881 326.088 116.326 326.296L119.035 324.426C119.035 324.426 121.745 326.296 123.371 329.621C124.996 332.947 128.97 337.729 136.378 337.313C136.378 337.313 134.752 327.335 143.605 309.46C152.457 291.584 164.742 282.436 169.259 274.746C173.775 267.055 173.414 263.522 173.414 263.522L171.066 262.69Z" fill="#F1D23C"/>
<path d="M171.066 262.69C171.066 262.69 168.356 261.235 167.272 257.702C166.189 254.169 163.479 253.754 163.479 253.754C163.479 253.754 162.757 253.546 163.118 255.208C163.479 256.871 162.576 259.573 159.144 260.196C155.712 260.82 133.31 265.6 130.238 271.837C130.238 271.837 129.335 269.135 128.973 272.252V274.539C128.973 274.539 127.89 272.668 127.709 274.539C127.528 276.409 128.612 276.825 128.612 276.825L128.973 276.201C128.973 276.201 136.381 279.942 135.658 282.436C135.658 282.436 136.742 283.475 136.923 280.774C136.923 280.774 137.103 281.605 138.549 280.981L138.729 279.942C138.729 279.942 143.787 278.903 146.679 278.695C146.679 278.695 140.716 288.673 138.549 290.128C136.381 291.583 124.096 302.6 124.096 302.6L107.654 313.616C107.654 313.616 114.881 326.088 116.326 326.296L119.035 324.426C119.035 324.426 121.745 326.296 123.371 329.621C124.996 332.947 128.97 337.729 136.378 337.313C136.378 337.313 134.752 327.335 143.605 309.46C152.457 291.584 164.742 282.436 169.259 274.746C173.775 267.055 173.414 263.522 173.414 263.522L171.066 262.69Z" fill="url(#paint34_radial_608_11834)"/>
<path d="M173.414 263.522L171.066 262.69C171.066 262.69 168.357 261.235 167.273 257.702C166.189 254.169 163.479 253.754 163.479 253.754C163.479 253.754 162.757 253.546 163.118 255.208C163.479 256.871 162.576 259.573 159.144 260.196C158.349 260.341 156.538 260.708 154.187 261.265C154.253 262.709 154.343 264.153 154.466 265.593C155.099 273.065 156.651 280.28 159.107 287.085C163.417 282.18 167.171 278.307 169.263 274.746C173.776 267.055 173.414 263.522 173.414 263.522Z" fill="url(#paint35_radial_608_11834)"/>
<path d="M93.4731 300.625C93.4731 300.625 113.888 295.637 130.508 306.86C132.941 308.504 153.451 331.596 198.255 345.73C216.365 351.444 262.931 359.033 262.931 359.033" stroke="#0144B9" stroke-width="0.385417" stroke-miterlimit="10"/>
<path d="M135.657 282.644C135.657 282.644 128.514 295.916 127.027 300.193C127.027 300.193 129.515 301.768 130.057 302.6C130.599 303.431 131.683 306.548 133.489 307.38C133.489 307.38 132.225 308.627 131.322 307.795C130.419 306.964 130.419 306.964 130.419 306.964L131.322 308.211C131.322 308.211 130.238 309.874 129.515 309.666C128.793 309.458 128.974 309.874 128.07 309.666C127.167 309.458 126.625 308.835 126.625 308.835C126.625 308.835 126.625 309.458 126.083 309.25C125.666 309.091 123.859 306.764 123.048 305.505C122.797 305.116 122.713 304.615 122.819 304.145L123.735 300.104C123.735 300.104 124.819 283.268 128.974 276.199C128.972 276.201 136.921 279.111 135.657 282.644Z" fill="#FFDE99"/>
<path d="M135.657 282.644C135.657 282.644 128.514 295.916 127.027 300.193C127.027 300.193 129.515 301.768 130.057 302.6C130.599 303.431 131.683 306.548 133.489 307.38C133.489 307.38 132.225 308.627 131.322 307.795C130.419 306.964 130.419 306.964 130.419 306.964L131.322 308.211C131.322 308.211 130.238 309.874 129.515 309.666C128.793 309.458 128.974 309.874 128.07 309.666C127.167 309.458 126.625 308.835 126.625 308.835C126.625 308.835 126.625 309.458 126.083 309.25C125.666 309.091 123.859 306.764 123.048 305.505C122.797 305.116 122.713 304.615 122.819 304.145L123.735 300.104C123.735 300.104 124.819 283.268 128.974 276.199C128.972 276.201 136.921 279.111 135.657 282.644Z" fill="url(#paint36_radial_608_11834)"/>
<path d="M216.152 302.655H173.981C173.642 302.655 173.368 302.34 173.368 301.95V301.781C173.368 301.392 173.642 301.076 173.981 301.076H216.152C216.491 301.076 216.765 301.392 216.765 301.781V301.95C216.765 302.338 216.491 302.655 216.152 302.655Z" fill="#241921"/>
<path d="M216.151 302.655H191.156C190.818 302.655 190.543 302.34 190.543 301.95V301.781C190.543 301.392 190.818 301.076 191.156 301.076H216.151C216.49 301.076 216.764 301.392 216.764 301.781V301.95C216.764 302.338 216.49 302.655 216.151 302.655Z" fill="#0061FE"/>
<path d="M222.688 276.305H198.083C197.751 276.305 197.458 276.55 197.354 276.912L190.876 299.517C190.711 300.089 191.082 300.679 191.605 300.679H216.21C216.542 300.679 216.835 300.434 216.939 300.072L223.417 277.467C223.582 276.893 223.211 276.305 222.688 276.305Z" fill="#0061FE"/>
<path d="M187.653 302.26H185.645C185.504 302.26 185.391 302.128 185.391 301.967V301.896C185.391 301.733 185.505 301.603 185.645 301.603H187.653C187.795 301.603 187.908 301.735 187.908 301.896V301.967C187.91 302.128 187.795 302.26 187.653 302.26Z" stroke="#0061FE" stroke-width="0.385417" stroke-miterlimit="10"/>
<path d="M215.078 302.325H213.07C212.928 302.325 212.815 302.193 212.815 302.032V301.961C212.815 301.798 212.929 301.668 213.07 301.668H215.078C215.22 301.668 215.333 301.8 215.333 301.961V302.032C215.334 302.193 215.22 302.325 215.078 302.325Z" stroke="#0061FE" stroke-width="0.385417" stroke-miterlimit="10"/>
<path d="M183.475 302.325H181.467C181.325 302.325 181.212 302.193 181.212 302.032V301.961C181.212 301.798 181.326 301.668 181.467 301.668H183.475C183.617 301.668 183.729 301.8 183.729 301.961V302.032C183.729 302.193 183.615 302.325 183.475 302.325Z" stroke="#0061FE" stroke-width="0.385417" stroke-miterlimit="10"/>
<path d="M189.2 302.325H189.139C188.997 302.325 188.884 302.193 188.884 302.032V301.961C188.884 301.798 188.999 301.668 189.139 301.668H189.2C189.342 301.668 189.455 301.8 189.455 301.961V302.032C189.455 302.193 189.341 302.325 189.2 302.325Z" stroke="#0061FE" stroke-width="0.385417" stroke-miterlimit="10"/>
<path d="M223.14 276.474C223.014 276.368 222.859 276.305 222.688 276.305H198.083C197.751 276.305 197.458 276.55 197.354 276.912L190.952 299.252L223.14 276.474Z" fill="url(#paint37_linear_608_11834)"/>
<path d="M219.005 278.031L211.218 283.564" stroke="white" stroke-width="0.385417" stroke-miterlimit="10"/>
<path d="M201.416 304.054L205.633 303.501C205.633 303.501 208.38 299.853 209.775 299.252C209.775 299.252 208.821 298.235 206.654 300.313C204.486 302.392 204.667 302.184 204.667 302.184H202.319L201.416 304.054Z" fill="#FFDE99"/>
<path d="M201.416 304.054L205.633 303.501C205.633 303.501 208.38 299.853 209.775 299.252C209.775 299.252 208.821 298.235 206.654 300.313C204.486 302.392 204.667 302.184 204.667 302.184H202.319L201.416 304.054Z" fill="url(#paint38_radial_608_11834)"/>
<path d="M202.138 301.56L197.08 302.6H197.046C196.116 302.6 195.195 302.806 194.322 303.178C192.776 303.841 189.997 304.496 189.452 305.157C190.906 305.112 192.426 305.025 194.008 304.886C194.008 304.886 200.693 304.262 202.499 303.847C202.499 303.847 206.473 298.651 207.015 298.651C207.557 298.651 205.03 297.612 202.138 301.56Z" fill="#FFDE99"/>
<path d="M119.036 324.426C119.036 324.426 116.507 321.932 116.326 323.594C116.145 325.257 116.687 326.088 116.326 326.296L119.036 324.426Z" fill="url(#paint39_radial_608_11834)"/>
<path d="M116.681 323.023L116.692 323.039C117.439 322.852 119.034 324.426 119.034 324.426C119.034 324.426 121.743 326.296 123.369 329.621C123.695 330.289 124.119 331.015 124.643 331.748L136.033 306.966L116.681 323.023Z" fill="url(#paint40_radial_608_11834)"/>
<path d="M131.32 308.211L130.567 307.172C130.567 307.172 129.333 305.925 129.333 304.678C129.333 303.655 125.689 305.986 123.181 305.711C124.042 307.001 125.685 309.1 126.08 309.252C126.622 309.46 126.622 308.836 126.622 308.836C126.622 308.836 127.164 309.46 128.067 309.668C128.971 309.875 128.79 309.46 129.513 309.668C130.237 309.875 131.32 308.211 131.32 308.211Z" fill="url(#paint41_radial_608_11834)"/>
<path d="M170.976 264.457C170.976 264.457 170.615 271.525 159.939 282.703" stroke="white" stroke-width="0.385417" stroke-miterlimit="10"/>
<path d="M173.685 239.513C173.685 239.513 173.143 242.839 170.976 244.501" stroke="#0061FE" stroke-width="0.385417" stroke-miterlimit="10"/>
<path d="M172.421 240.345C172.421 240.345 171.517 243.047 168.085 244.917" stroke="#0061FE" stroke-width="0.385417" stroke-miterlimit="10"/>
<path d="M193.468 370.778C193.468 370.778 191.3 375.142 188.591 377.013" stroke="#DEF4FF" stroke-width="0.385417" stroke-miterlimit="10"/>
<path d="M101.964 333.051C101.964 333.051 102.42 329.555 104.451 327.873" stroke="#DEF4FF" stroke-width="0.385417" stroke-miterlimit="10"/>
<path d="M60.5815 342.6C59.7783 343.819 59.8106 345.673 60.6573 346.853C61.6346 348.215 63.4087 348.577 64.3312 349.987C65.0344 351.061 65.065 352.655 64.4038 353.765" stroke="#0061FE" stroke-width="0.385417" stroke-miterlimit="10"/>
<path d="M291.642 334.35C292.309 334.35 292.851 333.726 292.851 332.958C292.851 332.189 292.309 331.566 291.642 331.566C290.974 331.566 290.432 332.189 290.432 332.958C290.432 333.726 290.974 334.35 291.642 334.35Z" stroke="#0061FE" stroke-width="0.385417" stroke-miterlimit="10"/>
<path d="M81.6579 278.655L80.1006 279.137L80.5198 280.929L82.0771 280.447L81.6579 278.655Z" stroke="#FA404B" stroke-width="0.385417" stroke-miterlimit="10"/>
<path d="M209.631 322.659C209.631 322.659 215.437 315.236 223.824 319.319" stroke="#FA404B" stroke-width="0.385417" stroke-miterlimit="10"/>
<path d="M94.8002 349.751L92.2197 354.205" stroke="#FA404B" stroke-width="0.385417" stroke-miterlimit="10"/>
<path d="M116.412 237.856L118.831 239.897" stroke="#FA404B" stroke-width="0.385417" stroke-miterlimit="10"/>
<path d="M270.972 305.784C272.845 306.303 274.961 305.305 275.978 303.422C276.351 302.731 276.583 301.948 276.959 301.258C277.652 299.987 278.844 299.091 280.134 298.87" stroke="#0061FE" stroke-width="0.385417" stroke-miterlimit="10"/>
</g>
<defs>
<filter id="filter0_d_608_11834" x="-16" y="-12" width="392" height="832" filterUnits="userSpaceOnUse" color-interpolation-filters="sRGB">
<feFlood flood-opacity="0" result="BackgroundImageFix"/>
<feColorMatrix in="SourceAlpha" type="matrix" values="0 0 0 0 0 0 0 0 0 0 0 0 0 0 0 0 0 0 127 0" result="hardAlpha"/>
<feOffset dy="4"/>
<feGaussianBlur stdDeviation="8"/>
<feColorMatrix type="matrix" values="0 0 0 0 0 0 0 0 0 0 0 0 0 0 0 0 0 0 0.25 0"/>
<feBlend mode="normal" in2="BackgroundImageFix" result="effect1_dropShadow_608_11834"/>
<feBlend mode="normal" in="SourceGraphic" in2="effect1_dropShadow_608_11834" result="shape"/>
</filter>
<filter id="filter1_d_608_11834" x="-16" y="-12" width="392" height="832" filterUnits="userSpaceOnUse" color-interpolation-filters="sRGB">
<feFlood flood-opacity="0" result="BackgroundImageFix"/>
<feColorMatrix in="SourceAlpha" type="matrix" values="0 0 0 0 0 0 0 0 0 0 0 0 0 0 0 0 0 0 127 0" result="hardAlpha"/>
<feOffset dy="4"/>
<feGaussianBlur stdDeviation="8"/>
<feColorMatrix type="matrix" values="0 0 0 0 0 0 0 0 0 0 0 0 0 0 0 0 0 0 0.25 0"/>
<feBlend mode="normal" in2="BackgroundImageFix" result="effect1_dropShadow_608_11834"/>
<feBlend mode="normal" in="SourceGraphic" in2="effect1_dropShadow_608_11834" result="shape"/>
</filter>
<radialGradient id="paint0_radial_608_11834" cx="0" cy="0" r="1" gradientUnits="userSpaceOnUse" gradientTransform="translate(167.875 245.161) scale(162.821 187.338)">
<stop stop-color="#EECFF8"/>
<stop offset="0.9011" stop-color="white" stop-opacity="0"/>
</radialGradient>
<radialGradient id="paint1_radial_608_11834" cx="0" cy="0" r="1" gradientUnits="userSpaceOnUse" gradientTransform="translate(279.914 385.611) scale(20.8291 23.9654)">
<stop offset="0.3231" stop-color="#C184A8" stop-opacity="0.2102"/>
<stop offset="0.9171" stop-color="#0061FE"/>
</radialGradient>
<radialGradient id="paint2_radial_608_11834" cx="0" cy="0" r="1" gradientUnits="userSpaceOnUse" gradientTransform="translate(278.202 380.333) scale(8.83667 10.1672)">
<stop offset="0.1043" stop-color="#FFDE99"/>
<stop offset="0.1056" stop-color="#FFDE99" stop-opacity="0.9985"/>
<stop offset="0.268" stop-color="#E9BD9E" stop-opacity="0.8173"/>
<stop offset="0.4348" stop-color="#D7A4A3" stop-opacity="0.6311"/>
<stop offset="0.6085" stop-color="#CB92A6" stop-opacity="0.4371"/>
<stop offset="0.7917" stop-color="#C387A7" stop-opacity="0.2326"/>
<stop offset="1" stop-color="#C184A8" stop-opacity="0"/>
</radialGradient>
<radialGradient id="paint3_radial_608_11834" cx="0" cy="0" r="1" gradientUnits="userSpaceOnUse" gradientTransform="translate(248.719 391.833) scale(23.1293 26.6119)">
<stop offset="0.3231" stop-color="#C184A8" stop-opacity="0.2102"/>
<stop offset="0.9171" stop-color="#0061FE"/>
</radialGradient>
<radialGradient id="paint4_radial_608_11834" cx="0" cy="0" r="1" gradientUnits="userSpaceOnUse" gradientTransform="translate(249.38 384.98) scale(14.9696 17.2237)">
<stop offset="0.1043" stop-color="#FFDE99"/>
<stop offset="0.1056" stop-color="#FFDE99" stop-opacity="0.9985"/>
<stop offset="0.268" stop-color="#E9BD9E" stop-opacity="0.8173"/>
<stop offset="0.4348" stop-color="#D7A4A3" stop-opacity="0.6311"/>
<stop offset="0.6085" stop-color="#CB92A6" stop-opacity="0.4371"/>
<stop offset="0.7917" stop-color="#C387A7" stop-opacity="0.2326"/>
<stop offset="1" stop-color="#C184A8" stop-opacity="0"/>
</radialGradient>
<radialGradient id="paint5_radial_608_11834" cx="0" cy="0" r="1" gradientUnits="userSpaceOnUse" gradientTransform="translate(268.651 354.773) scale(12.36 14.2211)">
<stop offset="0.3231" stop-color="#C184A8" stop-opacity="0.2102"/>
<stop offset="0.9171" stop-color="#0061FE"/>
</radialGradient>
<radialGradient id="paint6_radial_608_11834" cx="0" cy="0" r="1" gradientUnits="userSpaceOnUse" gradientTransform="translate(261.999 374.338) rotate(-14.6331) scale(71.7695 29.6999)">
<stop offset="0.3231" stop-color="#C184A8" stop-opacity="0.2102"/>
<stop offset="0.9171" stop-color="#0061FE"/>
</radialGradient>
<radialGradient id="paint7_radial_608_11834" cx="0" cy="0" r="1" gradientUnits="userSpaceOnUse" gradientTransform="translate(237.194 384.114) scale(14.3017 16.4551)">
<stop offset="0.1043" stop-color="#FFDE99"/>
<stop offset="0.1056" stop-color="#FFDE99" stop-opacity="0.9985"/>
<stop offset="0.268" stop-color="#E9BD9E" stop-opacity="0.8173"/>
<stop offset="0.4348" stop-color="#D7A4A3" stop-opacity="0.6311"/>
<stop offset="0.6085" stop-color="#CB92A6" stop-opacity="0.4371"/>
<stop offset="0.7917" stop-color="#C387A7" stop-opacity="0.2326"/>
<stop offset="1" stop-color="#C184A8" stop-opacity="0"/>
</radialGradient>
<radialGradient id="paint8_radial_608_11834" cx="0" cy="0" r="1" gradientUnits="userSpaceOnUse" gradientTransform="translate(269.166 384.35) scale(8.9589 10.3079)">
<stop offset="0.1043" stop-color="#FFDE99"/>
<stop offset="0.1056" stop-color="#FFDE99" stop-opacity="0.9985"/>
<stop offset="0.268" stop-color="#E9BD9E" stop-opacity="0.8173"/>
<stop offset="0.4348" stop-color="#D7A4A3" stop-opacity="0.6311"/>
<stop offset="0.6085" stop-color="#CB92A6" stop-opacity="0.4371"/>
<stop offset="0.7917" stop-color="#C387A7" stop-opacity="0.2326"/>
<stop offset="1" stop-color="#C184A8" stop-opacity="0"/>
</radialGradient>
<radialGradient id="paint9_radial_608_11834" cx="0" cy="0" r="1" gradientUnits="userSpaceOnUse" gradientTransform="translate(280.996 364.531) rotate(-19.9253) scale(21.0126 15.8112)">
<stop offset="0.1043" stop-color="#FFDE99"/>
<stop offset="0.1056" stop-color="#FFDE99" stop-opacity="0.9985"/>
<stop offset="0.268" stop-color="#E9BD9E" stop-opacity="0.8173"/>
<stop offset="0.4348" stop-color="#D7A4A3" stop-opacity="0.6311"/>
<stop offset="0.6085" stop-color="#CB92A6" stop-opacity="0.4371"/>
<stop offset="0.7917" stop-color="#C387A7" stop-opacity="0.2326"/>
<stop offset="1" stop-color="#C184A8" stop-opacity="0"/>
</radialGradient>
<radialGradient id="paint10_radial_608_11834" cx="0" cy="0" r="1" gradientUnits="userSpaceOnUse" gradientTransform="translate(272.177 368.518) scale(11.2704 12.9675)">
<stop stop-color="#0061FE"/>
<stop offset="0.0175" stop-color="#1B66F2"/>
<stop offset="0.0482" stop-color="#466EDF"/>
<stop offset="0.0825" stop-color="#6C75CE"/>
<stop offset="0.1196" stop-color="#8D7BBF"/>
<stop offset="0.1604" stop-color="#A980B3"/>
<stop offset="0.2062" stop-color="#C084A9"/>
<stop offset="0.2592" stop-color="#D187A1"/>
<stop offset="0.3238" stop-color="#DD899C"/>
<stop offset="0.4126" stop-color="#E48B99"/>
<stop offset="0.639" stop-color="#E68B98"/>
<stop offset="1" stop-color="#FB8F8F" stop-opacity="0"/>
</radialGradient>
<radialGradient id="paint11_radial_608_11834" cx="0" cy="0" r="1" gradientUnits="userSpaceOnUse" gradientTransform="translate(278.013 356.407) scale(3.02334 3.47856)">
<stop stop-color="#0144B9"/>
<stop offset="0.0286" stop-color="#0C47B7" stop-opacity="0.9606"/>
<stop offset="0.2403" stop-color="#5C5FAA" stop-opacity="0.6686"/>
<stop offset="0.3908" stop-color="#8E6EA1" stop-opacity="0.4611"/>
<stop offset="0.4648" stop-color="#A1749E" stop-opacity="0.3591"/>
<stop offset="0.4868" stop-color="#A7769D" stop-opacity="0.3443"/>
<stop offset="0.6368" stop-color="#CB8197" stop-opacity="0.2437"/>
<stop offset="0.7768" stop-color="#E68993" stop-opacity="0.1497"/>
<stop offset="0.9021" stop-color="#F58D90" stop-opacity="0.0657"/>
<stop offset="1" stop-color="#FB8F8F" stop-opacity="0"/>
</radialGradient>
<radialGradient id="paint12_radial_608_11834" cx="0" cy="0" r="1" gradientUnits="userSpaceOnUse" gradientTransform="translate(290.843 367.468) scale(9.2409 10.6323)">
<stop offset="0.3176" stop-color="#FB8F8F" stop-opacity="0"/>
<stop offset="0.3846" stop-color="#F58D90" stop-opacity="0.0982"/>
<stop offset="0.4703" stop-color="#E58993" stop-opacity="0.2238"/>
<stop offset="0.5662" stop-color="#CB8197" stop-opacity="0.3644"/>
<stop offset="0.6696" stop-color="#A6769D" stop-opacity="0.5158"/>
<stop offset="0.779" stop-color="#7768A5" stop-opacity="0.6762"/>
<stop offset="0.8915" stop-color="#3F57AF" stop-opacity="0.8411"/>
<stop offset="1" stop-color="#0144B9"/>
</radialGradient>
<radialGradient id="paint13_radial_608_11834" cx="0" cy="0" r="1" gradientUnits="userSpaceOnUse" gradientTransform="translate(278.818 360.838) scale(4.01107 4.6151)">
<stop offset="0.3176" stop-color="#FB8F8F" stop-opacity="0"/>
<stop offset="0.3846" stop-color="#F58D90" stop-opacity="0.0982"/>
<stop offset="0.4703" stop-color="#E58993" stop-opacity="0.2238"/>
<stop offset="0.5662" stop-color="#CB8197" stop-opacity="0.3644"/>
<stop offset="0.6696" stop-color="#A6769D" stop-opacity="0.5158"/>
<stop offset="0.779" stop-color="#7768A5" stop-opacity="0.6762"/>
<stop offset="0.8915" stop-color="#3F57AF" stop-opacity="0.8411"/>
<stop offset="1" stop-color="#0144B9"/>
</radialGradient>
<radialGradient id="paint14_radial_608_11834" cx="0" cy="0" r="1" gradientUnits="userSpaceOnUse" gradientTransform="translate(277.611 359.37) rotate(100.544) scale(5.64062 2.61769)">
<stop offset="0.3176" stop-color="#FB8F8F" stop-opacity="0"/>
<stop offset="0.3846" stop-color="#F58D90" stop-opacity="0.0982"/>
<stop offset="0.4703" stop-color="#E58993" stop-opacity="0.2238"/>
<stop offset="0.5662" stop-color="#CB8197" stop-opacity="0.3644"/>
<stop offset="0.6696" stop-color="#A6769D" stop-opacity="0.5158"/>
<stop offset="0.779" stop-color="#7768A5" stop-opacity="0.6762"/>
<stop offset="0.8915" stop-color="#3F57AF" stop-opacity="0.8411"/>
<stop offset="1" stop-color="#0144B9"/>
</radialGradient>
<radialGradient id="paint15_radial_608_11834" cx="0" cy="0" r="1" gradientUnits="userSpaceOnUse" gradientTransform="translate(253.146 383.589) scale(24.1323 27.7659)">
<stop offset="0.3231" stop-color="#C184A8" stop-opacity="0.2102"/>
<stop offset="0.9171" stop-color="#0061FE"/>
</radialGradient>
<radialGradient id="paint16_radial_608_11834" cx="0" cy="0" r="1" gradientUnits="userSpaceOnUse" gradientTransform="translate(223.001 243.895) scale(67.2322 77.3555)">
<stop stop-color="#0061FE"/>
<stop offset="0.0281" stop-color="#106CFE" stop-opacity="0.9719"/>
<stop offset="0.1219" stop-color="#408BFE" stop-opacity="0.8781"/>
<stop offset="0.2211" stop-color="#6AA7FE" stop-opacity="0.7789"/>
<stop offset="0.3241" stop-color="#8EBFFF" stop-opacity="0.6759"/>
<stop offset="0.4318" stop-color="#ABD2FF" stop-opacity="0.5682"/>
<stop offset="0.546" stop-color="#C2E1FF" stop-opacity="0.454"/>
<stop offset="0.6696" stop-color="#D2ECFF" stop-opacity="0.3304"/>
<stop offset="0.8094" stop-color="#DBF2FF" stop-opacity="0.1906"/>
<stop offset="1" stop-color="#DEF4FF" stop-opacity="0"/>
</radialGradient>
<radialGradient id="paint17_radial_608_11834" cx="0" cy="0" r="1" gradientUnits="userSpaceOnUse" gradientTransform="translate(224.143 252.991) scale(13.7231 15.7894)">
<stop stop-color="#FB8F8F"/>
<stop offset="1" stop-color="#F9C1DA" stop-opacity="0"/>
</radialGradient>
<radialGradient id="paint18_radial_608_11834" cx="0" cy="0" r="1" gradientUnits="userSpaceOnUse" gradientTransform="translate(225.937 248.097) scale(21.1665 24.3536)">
<stop stop-color="#FB8F8F"/>
<stop offset="1" stop-color="#F9C1DA" stop-opacity="0"/>
</radialGradient>
<radialGradient id="paint19_radial_608_11834" cx="0" cy="0" r="1" gradientUnits="userSpaceOnUse" gradientTransform="translate(227.953 245.591) scale(21.1665 24.3536)">
<stop stop-color="#FB8F8F"/>
<stop offset="1" stop-color="#F9C1DA" stop-opacity="0"/>
</radialGradient>
<radialGradient id="paint20_radial_608_11834" cx="0" cy="0" r="1" gradientUnits="userSpaceOnUse" gradientTransform="translate(223.067 264.145) scale(49.7994 37.6291)">
<stop stop-color="#0061FE"/>
<stop offset="0.0281" stop-color="#106CFE" stop-opacity="0.9719"/>
<stop offset="0.1219" stop-color="#408BFE" stop-opacity="0.8781"/>
<stop offset="0.2211" stop-color="#6AA7FE" stop-opacity="0.7789"/>
<stop offset="0.3241" stop-color="#8EBFFF" stop-opacity="0.6759"/>
<stop offset="0.4318" stop-color="#ABD2FF" stop-opacity="0.5682"/>
<stop offset="0.546" stop-color="#C2E1FF" stop-opacity="0.454"/>
<stop offset="0.6696" stop-color="#D2ECFF" stop-opacity="0.3304"/>
<stop offset="0.8094" stop-color="#DBF2FF" stop-opacity="0.1906"/>
<stop offset="1" stop-color="#DEF4FF" stop-opacity="0"/>
</radialGradient>
<radialGradient id="paint21_radial_608_11834" cx="0" cy="0" r="1" gradientUnits="userSpaceOnUse" gradientTransform="translate(223.067 267.299) scale(49.7994 37.6291)">
<stop stop-color="#0061FE"/>
<stop offset="0.0281" stop-color="#106CFE" stop-opacity="0.9719"/>
<stop offset="0.1219" stop-color="#408BFE" stop-opacity="0.8781"/>
<stop offset="0.2211" stop-color="#6AA7FE" stop-opacity="0.7789"/>
<stop offset="0.3241" stop-color="#8EBFFF" stop-opacity="0.6759"/>
<stop offset="0.4318" stop-color="#ABD2FF" stop-opacity="0.5682"/>
<stop offset="0.546" stop-color="#C2E1FF" stop-opacity="0.454"/>
<stop offset="0.6696" stop-color="#D2ECFF" stop-opacity="0.3304"/>
<stop offset="0.8094" stop-color="#DBF2FF" stop-opacity="0.1906"/>
<stop offset="1" stop-color="#DEF4FF" stop-opacity="0"/>
</radialGradient>
<radialGradient id="paint22_radial_608_11834" cx="0" cy="0" r="1" gradientUnits="userSpaceOnUse" gradientTransform="translate(98.0606 318.946) scale(22.4871 25.873)">
<stop stop-color="#FA404B"/>
<stop offset="0.025" stop-color="#FA484F" stop-opacity="0.975"/>
<stop offset="0.1916" stop-color="#FC7565" stop-opacity="0.8084"/>
<stop offset="0.3589" stop-color="#FD9B78" stop-opacity="0.6411"/>
<stop offset="0.5244" stop-color="#FEB886" stop-opacity="0.4756"/>
<stop offset="0.6876" stop-color="#FECD91" stop-opacity="0.3124"/>
<stop offset="0.8474" stop-color="#FFDA97" stop-opacity="0.1526"/>
<stop offset="1" stop-color="#FFDE99" stop-opacity="0"/>
</radialGradient>
<radialGradient id="paint23_radial_608_11834" cx="0" cy="0" r="1" gradientUnits="userSpaceOnUse" gradientTransform="translate(133.34 311.174) scale(42.7423 49.1782)">
<stop offset="0.00534759" stop-color="#241921"/>
<stop offset="1" stop-color="#0061FE" stop-opacity="0"/>
</radialGradient>
<radialGradient id="paint24_radial_608_11834" cx="0" cy="0" r="1" gradientUnits="userSpaceOnUse" gradientTransform="translate(188.245 379.23) scale(15.27 17.5693)">
<stop stop-color="#FA404B"/>
<stop offset="0.025" stop-color="#FA484F" stop-opacity="0.975"/>
<stop offset="0.1916" stop-color="#FC7565" stop-opacity="0.8084"/>
<stop offset="0.3589" stop-color="#FD9B78" stop-opacity="0.6411"/>
<stop offset="0.5244" stop-color="#FEB886" stop-opacity="0.4756"/>
<stop offset="0.6876" stop-color="#FECD91" stop-opacity="0.3124"/>
<stop offset="0.8474" stop-color="#FFDA97" stop-opacity="0.1526"/>
<stop offset="1" stop-color="#FFDE99" stop-opacity="0"/>
</radialGradient>
<radialGradient id="paint25_radial_608_11834" cx="0" cy="0" r="1" gradientUnits="userSpaceOnUse" gradientTransform="translate(113.761 288.962) scale(73.9112 85.0403)">
<stop offset="0.00534759" stop-color="#241921"/>
<stop offset="1" stop-color="#0061FE" stop-opacity="0"/>
</radialGradient>
<radialGradient id="paint26_radial_608_11834" cx="0" cy="0" r="1" gradientUnits="userSpaceOnUse" gradientTransform="translate(163.463 386.95) scale(45.2834 52.1019)">
<stop offset="0.00534759" stop-color="#241921"/>
<stop offset="1" stop-color="#0061FE" stop-opacity="0"/>
</radialGradient>
<radialGradient id="paint27_radial_608_11834" cx="0" cy="0" r="1" gradientUnits="userSpaceOnUse" gradientTransform="translate(203.17 300.698) scale(9.69915 11.1596)">
<stop stop-color="#FA404B"/>
<stop offset="0.025" stop-color="#FA484F"/>
<stop offset="0.1916" stop-color="#FC7565"/>
<stop offset="0.3589" stop-color="#FD9B78"/>
<stop offset="0.5244" stop-color="#FEB886"/>
<stop offset="0.6876" stop-color="#FECD91"/>
<stop offset="0.8474" stop-color="#FFDA97"/>
<stop offset="1" stop-color="#FFDE99"/>
</radialGradient>
<radialGradient id="paint28_radial_608_11834" cx="0" cy="0" r="1" gradientUnits="userSpaceOnUse" gradientTransform="translate(185.819 301.847) rotate(5.29547) scale(9.20305 5.09359)">
<stop stop-color="#FA404B"/>
<stop offset="0.025" stop-color="#FA484F" stop-opacity="0.975"/>
<stop offset="0.1916" stop-color="#FC7565" stop-opacity="0.8084"/>
<stop offset="0.3589" stop-color="#FD9B78" stop-opacity="0.6411"/>
<stop offset="0.5244" stop-color="#FEB886" stop-opacity="0.4756"/>
<stop offset="0.6876" stop-color="#FECD91" stop-opacity="0.3124"/>
<stop offset="0.8474" stop-color="#FFDA97" stop-opacity="0.1526"/>
<stop offset="1" stop-color="#FFDE99" stop-opacity="0"/>
</radialGradient>
<radialGradient id="paint29_radial_608_11834" cx="0" cy="0" r="1" gradientUnits="userSpaceOnUse" gradientTransform="translate(161.272 272.263) scale(41.496 47.7441)">
<stop stop-color="#FB8F8F"/>
<stop offset="1" stop-color="#F9C1DA" stop-opacity="0"/>
</radialGradient>
<radialGradient id="paint30_radial_608_11834" cx="0" cy="0" r="1" gradientUnits="userSpaceOnUse" gradientTransform="translate(175.306 259.03) scale(10.3432 11.9006)">
<stop stop-color="#FA404B"/>
<stop offset="0.025" stop-color="#FA484F" stop-opacity="0.975"/>
<stop offset="0.1916" stop-color="#FC7565" stop-opacity="0.8084"/>
<stop offset="0.3589" stop-color="#FD9B78" stop-opacity="0.6411"/>
<stop offset="0.5244" stop-color="#FEB886" stop-opacity="0.4756"/>
<stop offset="0.6876" stop-color="#FECD91" stop-opacity="0.3124"/>
<stop offset="0.8474" stop-color="#FFDA97" stop-opacity="0.1526"/>
<stop offset="1" stop-color="#FFDE99" stop-opacity="0"/>
</radialGradient>
<radialGradient id="paint31_radial_608_11834" cx="0" cy="0" r="1" gradientUnits="userSpaceOnUse" gradientTransform="translate(166.977 243.329) scale(13.4789 15.5085)">
<stop stop-color="#FA404B"/>
<stop offset="0.025" stop-color="#FA484F" stop-opacity="0.975"/>
<stop offset="0.1916" stop-color="#FC7565" stop-opacity="0.8084"/>
<stop offset="0.3589" stop-color="#FD9B78" stop-opacity="0.6411"/>
<stop offset="0.5244" stop-color="#FEB886" stop-opacity="0.4756"/>
<stop offset="0.6876" stop-color="#FECD91" stop-opacity="0.3124"/>
<stop offset="0.8474" stop-color="#FFDA97" stop-opacity="0.1526"/>
<stop offset="1" stop-color="#FFDE99" stop-opacity="0"/>
</radialGradient>
<radialGradient id="paint32_radial_608_11834" cx="0" cy="0" r="1" gradientUnits="userSpaceOnUse" gradientTransform="translate(178.752 245.219) scale(10.0502 11.5634)">
<stop stop-color="#FA404B"/>
<stop offset="0.025" stop-color="#FA484F" stop-opacity="0.975"/>
<stop offset="0.1916" stop-color="#FC7565" stop-opacity="0.8084"/>
<stop offset="0.3589" stop-color="#FD9B78" stop-opacity="0.6411"/>
<stop offset="0.5244" stop-color="#FEB886" stop-opacity="0.4756"/>
<stop offset="0.6876" stop-color="#FECD91" stop-opacity="0.3124"/>
<stop offset="0.8474" stop-color="#FFDA97" stop-opacity="0.1526"/>
<stop offset="1" stop-color="#FFDE99" stop-opacity="0"/>
</radialGradient>
<radialGradient id="paint33_radial_608_11834" cx="0" cy="0" r="1" gradientUnits="userSpaceOnUse" gradientTransform="translate(192.81 240.808) scale(28.7221 33.0469)">
<stop stop-color="#0061FE"/>
<stop offset="0.9947" stop-color="#241921"/>
</radialGradient>
<radialGradient id="paint34_radial_608_11834" cx="0" cy="0" r="1" gradientUnits="userSpaceOnUse" gradientTransform="translate(122.934 275.098) scale(49.3258 56.7529)">
<stop stop-color="#FB8F8F"/>
<stop offset="1" stop-color="#F9C1DA" stop-opacity="0"/>
</radialGradient>
<radialGradient id="paint35_radial_608_11834" cx="0" cy="0" r="1" gradientUnits="userSpaceOnUse" gradientTransform="translate(175.649 262.495) scale(24.6324 28.3414)">
<stop stop-color="white"/>
<stop offset="1" stop-color="#F1D23C" stop-opacity="0"/>
</radialGradient>
<radialGradient id="paint36_radial_608_11834" cx="0" cy="0" r="1" gradientUnits="userSpaceOnUse" gradientTransform="translate(121.702 272.21) scale(27.3222 31.4362)">
<stop stop-color="#FA404B"/>
<stop offset="0.025" stop-color="#FA484F" stop-opacity="0.975"/>
<stop offset="0.1916" stop-color="#FC7565" stop-opacity="0.8084"/>
<stop offset="0.3589" stop-color="#FD9B78" stop-opacity="0.6411"/>
<stop offset="0.5244" stop-color="#FEB886" stop-opacity="0.4756"/>
<stop offset="0.6876" stop-color="#FECD91" stop-opacity="0.3124"/>
<stop offset="0.8474" stop-color="#FFDA97" stop-opacity="0.1526"/>
<stop offset="1" stop-color="#FFDE99" stop-opacity="0"/>
</radialGradient>
<linearGradient id="paint37_linear_608_11834" x1="213.263" y1="254.42" x2="203.017" y2="296.05" gradientUnits="userSpaceOnUse">
<stop offset="0.1791" stop-color="#F9C1DA"/>
<stop offset="1" stop-color="#EECFF8" stop-opacity="0"/>
</linearGradient>
<radialGradient id="paint38_radial_608_11834" cx="0" cy="0" r="1" gradientUnits="userSpaceOnUse" gradientTransform="translate(202.862 301.722) scale(3.84902 4.42858)">
<stop stop-color="#FA404B"/>
<stop offset="0.025" stop-color="#FA484F" stop-opacity="0.975"/>
<stop offset="0.1916" stop-color="#FC7565" stop-opacity="0.8084"/>
<stop offset="0.3589" stop-color="#FD9B78" stop-opacity="0.6411"/>
<stop offset="0.5244" stop-color="#FEB886" stop-opacity="0.4756"/>
<stop offset="0.6876" stop-color="#FECD91" stop-opacity="0.3124"/>
<stop offset="0.8474" stop-color="#FFDA97" stop-opacity="0.1526"/>
<stop offset="1" stop-color="#FFDE99" stop-opacity="0"/>
</radialGradient>
<radialGradient id="paint39_radial_608_11834" cx="0" cy="0" r="1" gradientUnits="userSpaceOnUse" gradientTransform="translate(115.607 323.17) scale(6.27075 7.21491)">
<stop stop-color="#FB8F8F"/>
<stop offset="1" stop-color="#F9C1DA" stop-opacity="0"/>
</radialGradient>
<radialGradient id="paint40_radial_608_11834" cx="0" cy="0" r="1" gradientUnits="userSpaceOnUse" gradientTransform="translate(117.457 318.972) scale(12.4366 14.3092)">
<stop stop-color="white"/>
<stop offset="1" stop-color="#F1D23C" stop-opacity="0"/>
</radialGradient>
<radialGradient id="paint41_radial_608_11834" cx="0" cy="0" r="1" gradientUnits="userSpaceOnUse" gradientTransform="translate(124.988 304.19) scale(6.4611 7.43398)">
<stop stop-color="#FA404B"/>
<stop offset="0.025" stop-color="#FA484F" stop-opacity="0.975"/>
<stop offset="0.1916" stop-color="#FC7565" stop-opacity="0.8084"/>
<stop offset="0.3589" stop-color="#FD9B78" stop-opacity="0.6411"/>
<stop offset="0.5244" stop-color="#FEB886" stop-opacity="0.4756"/>
<stop offset="0.6876" stop-color="#FECD91" stop-opacity="0.3124"/>
<stop offset="0.8474" stop-color="#FFDA97" stop-opacity="0.1526"/>
<stop offset="1" stop-color="#FFDE99" stop-opacity="0"/>
</radialGradient>
<clipPath id="clip0_608_11834">
<rect width="360" height="800" fill="white"/>
</clipPath>
</defs>
</svg>
